<svg width="687" height="679" viewBox="0 0 687 679" fill="none" xmlns="http://www.w3.org/2000/svg">
<g clip-path="url(#clip0)">
<path d="M734.907 -2H-7.72412V706H734.907V-2Z" fill="url(#paint0_linear)" stroke="white" stroke-miterlimit="10" stroke-linecap="round" stroke-linejoin="round"/>
<path d="M682.203 76.86C653.23 113.238 620.034 142.538 584.382 163.062C585.168 159.524 585.954 155.985 586.739 152.305C559.927 172.687 531.739 189.39 502.766 202.271C474.186 215.01 443.936 224.494 413.981 226.617C421.74 223.644 429.401 220.813 437.159 217.841C438.24 217.416 439.32 216.992 440.008 215.859C441.677 213.453 440.793 209.348 440.793 205.951C440.695 196.892 448.749 190.098 454.249 194.769C452.284 185.71 452.383 174.244 457.588 168.299C463.481 161.647 473.4 164.478 479.195 169.432C479.686 159.382 483.909 149.898 490.391 145.652C487.936 122.297 495.302 97.2428 508.659 83.5127C518.775 73.1798 535.57 71.6228 541.364 87.476C539.891 82.0973 545.195 76.1523 548.534 79.4079C546.57 58.8835 552.561 37.2268 563.855 24.346C575.15 11.4652 591.061 7.92653 604.516 15.287C611.98 7.64344 619.543 5.52023 627.793 11.3237C636.043 16.9855 641.837 29.4417 642.427 42.6056C641.935 32.4142 656.176 44.8703 656.864 45.295C660.105 47.4182 659.712 52.9385 664.132 52.9385C666.293 52.9385 671.007 44.4457 673.364 42.8887C678.766 39.4915 686.132 41.1901 688.882 48.5506C689.275 49.6829 689.766 50.9569 690.551 51.3815C691.239 51.6646 692.025 50.9569 692.614 50.3907C699.784 43.3133 706.953 36.236 714.025 29.1586C706.658 47.2766 693.203 63.1299 682.203 76.86Z" fill="#68D9FF"/>
<path d="M80.2494 9.2006C92.4279 12.0315 102.347 28.7341 102.151 46.5691C102.151 50.957 115.115 53.0802 111.481 68.3673C114.33 51.2401 132.401 48.2676 141.24 60.4407C150.079 72.6137 151.062 92.5719 148.901 109.982C153.713 113.804 156.562 122.014 155.678 129.799C156.267 121.589 162.847 115.361 168.347 117.909C173.847 120.457 176.695 130.79 173.945 138.15C178.758 138.858 179.74 147.917 181.704 154.286C185.142 165.61 194.178 170.564 202.329 174.386C183.669 165.469 165.106 156.551 146.446 147.634C148.606 151.031 150.865 154.428 153.026 157.684C130.044 150.465 107.651 140.132 86.044 126.543C89.4815 126.968 92.9189 127.393 96.4547 127.817C66.794 98.3753 25.6424 95.6859 0.303223 58.8837C5.41035 60.016 10.4193 61.0069 15.5264 62.1393C1.67822 59.1668 13.6603 33.8298 18.9639 29.0172C30.1603 18.9674 42.6334 22.2229 50.7852 36.5192C56.0887 20.6659 65.5173 7.07739 78.8744 8.9175C79.3654 8.9175 79.7583 9.05905 80.2494 9.2006Z" fill="#68D9FF"/>
<path d="M247.017 181.322C247.606 177.358 249.079 173.678 251.338 170.989C255.954 165.61 264.892 165.044 269.704 170.139C271.57 172.121 277.168 192.362 274.418 191.655C278.151 192.645 279.526 198.449 279.133 203.261C286.499 201.563 297.302 208.64 303.784 213.311C275.793 216.284 247.606 205.102 220.597 195.759C225.704 194.91 230.91 195.193 235.919 196.467C235.82 191.938 236.704 186.983 239.258 184.436C241.811 181.888 246.133 183.303 246.918 187.691C246.624 185.568 246.722 183.445 247.017 181.322Z" fill="#68D9FF"/>
<path d="M681.417 77.5676C652.444 113.945 619.248 143.245 583.596 163.77C584.382 160.231 585.167 156.692 585.953 153.012C585.069 156.976 571.418 163.628 568.668 165.468C562.873 169.432 556.98 173.253 551.087 176.934C539.302 184.153 527.32 191.371 515.043 196.892C492.061 207.225 468.391 215.01 444.82 222.087C443.248 222.512 441.677 223.078 440.007 223.078C442.561 218.407 447.373 214.585 451.105 210.905C452.775 209.206 454.445 207.508 455.427 204.96C456.311 202.554 456.409 199.723 457.293 197.458C458.766 193.212 462.695 191.088 465.838 192.787C465.15 183.869 469.373 175.235 475.07 171.555C480.668 167.875 487.346 168.441 493.239 171.13C493.043 155.702 500.016 140.698 509.936 134.894C510.23 125.41 514.159 116.21 519.953 111.68C525.748 107.151 533.212 107.434 538.909 112.388C539.302 104.886 547.453 101.489 550.596 107.576C553.15 75.7274 568.569 46.0025 589.784 36.2358C610.998 26.469 636.73 39.3498 647.435 67.3762C653.132 61.2896 661.578 61.4312 667.176 67.6592C669.926 66.5269 671.989 63.1297 673.953 60.1572C675.917 57.0432 678.274 53.9292 681.123 53.6461C684.069 53.363 687.212 57.3263 686.131 61.2896C691.926 56.6186 697.033 50.532 701.747 43.7378C704.399 39.916 711.667 33.8295 713.337 29.7246C705.872 47.9842 692.417 63.8375 681.417 77.5676Z" fill="#2DCAFF"/>
<path d="M75.7316 44.4448C77.5976 44.8695 79.4637 45.4357 81.2316 46.4265C92.6244 52.7961 99.9904 71.4804 98.0261 88.7491C102.053 87.0505 106.767 89.7399 109.026 94.8356C112.66 82.2379 126.214 81.6718 132.794 91.297C139.374 100.922 140.16 116.351 138.294 129.656C143.401 127.958 147.133 139.989 152.338 138.291C153.615 137.866 154.696 136.734 155.874 136.026C159.704 134.044 164.321 139.423 163.731 145.368C168.74 140.98 176.204 149.048 174.731 157.258C175.615 158.532 176.892 158.957 178.07 159.664C179.642 160.655 180.428 162.354 179.74 164.76C169.526 163.344 155.972 153.295 145.562 148.34C147.722 151.738 149.981 155.135 152.142 158.39C129.16 151.171 106.767 140.838 85.1601 127.25C88.5976 127.675 92.0351 128.099 95.5708 128.524C66.0084 98.9405 24.8568 96.3927 -0.482422 59.4488C4.6247 60.5812 9.63361 61.5721 14.7407 62.7044C0.30329 59.5904 18.5711 32.2718 29.1782 34.5365C38.7049 36.5182 46.071 48.4082 49.1156 61.5721C54.6156 49.1159 65.6155 42.4632 75.7316 44.4448Z" fill="#2DCAFF"/>
<path d="M250.945 187.833C252.418 185.143 254.481 183.161 256.74 182.595C260.668 181.746 264.891 186.417 264.695 192.079C267.052 190.805 269.998 192.362 271.079 195.759C271.668 197.458 271.766 199.439 272.257 201.138C273.927 207.366 279.623 208.782 284.239 209.348C288.266 209.772 292.981 209.206 296.811 210.622C298.481 211.188 301.329 214.302 302.802 214.16C290.82 215.434 278.838 214.019 267.052 211.471C261.061 210.197 255.168 208.498 249.275 206.658C246.427 205.809 239.552 200.855 236.9 201.28C237.981 201.138 238.963 200.996 240.043 200.855C240.534 195.335 245.347 191.654 248.882 194.061C249.275 191.796 249.963 189.673 250.945 187.833Z" fill="#2DCAFF"/>
<path d="M326.668 245.585V219.398H372.829V245.585H326.668Z" fill="#006C83"/>
<path d="M330.597 240.204C331.899 240.204 332.954 238.683 332.954 236.807C332.954 234.931 331.899 233.41 330.597 233.41C329.295 233.41 328.24 234.931 328.24 236.807C328.24 238.683 329.295 240.204 330.597 240.204Z" fill="#FFCC4D"/>
<path d="M340.615 236.808C340.615 238.79 339.534 240.206 338.258 240.206C336.981 240.206 335.9 238.649 335.9 236.808C335.9 234.827 336.981 233.411 338.258 233.411C339.633 233.27 340.615 234.827 340.615 236.808Z" fill="#FFCC4D"/>
<path d="M345.82 240.205C347.121 240.205 348.177 238.684 348.177 236.808C348.177 234.932 347.121 233.411 345.82 233.411C344.518 233.411 343.462 234.932 343.462 236.808C343.462 238.684 344.518 240.205 345.82 240.205Z" fill="#FFCC4D"/>
<path d="M353.579 240.205C354.881 240.205 355.936 238.684 355.936 236.808C355.936 234.932 354.881 233.411 353.579 233.411C352.277 233.411 351.222 234.932 351.222 236.808C351.222 238.684 352.277 240.205 353.579 240.205Z" fill="#FFCC4D"/>
<path d="M363.99 236.808C363.99 238.79 362.909 240.206 361.633 240.206C360.356 240.206 359.275 238.649 359.275 236.808C359.275 234.827 360.356 233.411 361.633 233.411C362.909 233.27 363.99 234.827 363.99 236.808Z" fill="#FFCC4D"/>
<path d="M369.097 240.205C370.399 240.205 371.454 238.684 371.454 236.808C371.454 234.932 370.399 233.411 369.097 233.411C367.795 233.411 366.74 234.932 366.74 236.808C366.74 238.684 367.795 240.205 369.097 240.205Z" fill="#FFCC4D"/>
<path d="M330.597 228.882C331.899 228.882 332.954 227.361 332.954 225.485C332.954 223.609 331.899 222.088 330.597 222.088C329.295 222.088 328.24 223.609 328.24 225.485C328.24 227.361 329.295 228.882 330.597 228.882Z" fill="#FFCC4D"/>
<path d="M340.615 225.485C340.615 227.467 339.534 228.882 338.258 228.882C336.981 228.882 335.9 227.325 335.9 225.485C335.9 223.503 336.981 222.088 338.258 222.088C339.633 222.088 340.615 223.645 340.615 225.485Z" fill="#FFCC4D"/>
<path d="M345.82 228.882C347.121 228.882 348.177 227.361 348.177 225.485C348.177 223.609 347.121 222.088 345.82 222.088C344.518 222.088 343.462 223.609 343.462 225.485C343.462 227.361 344.518 228.882 345.82 228.882Z" fill="#FFCC4D"/>
<path d="M353.579 228.882C354.881 228.882 355.936 227.361 355.936 225.485C355.936 223.609 354.881 222.088 353.579 222.088C352.277 222.088 351.222 223.609 351.222 225.485C351.222 227.361 352.277 228.882 353.579 228.882Z" fill="#FFCC4D"/>
<path d="M363.99 225.485C363.99 227.467 362.909 228.882 361.633 228.882C360.356 228.882 359.275 227.325 359.275 225.485C359.275 223.503 360.356 222.088 361.633 222.088C362.909 222.088 363.99 223.645 363.99 225.485Z" fill="#FFCC4D"/>
<path d="M369.097 228.882C370.399 228.882 371.454 227.361 371.454 225.485C371.454 223.609 370.399 222.088 369.097 222.088C367.795 222.088 366.74 223.609 366.74 225.485C366.74 227.361 367.795 228.882 369.097 228.882Z" fill="#FFCC4D"/>
<path d="M26.6245 113.946L27.2138 62.8477C27.2138 62.8477 43.5173 99.0837 69.6422 119.608V151.315C69.7404 151.173 61.294 149.191 26.6245 113.946Z" fill="#006C83"/>
<path d="M27.2137 62.8477L20.7316 66.5279L19.8477 117.768L26.6244 113.946L27.2137 62.8477Z" fill="#10454C"/>
<path d="M26.6243 113.945C26.6243 113.945 55.7938 143.67 69.7402 151.172L63.5527 156.126L20.7314 117.201L26.6243 113.945Z" fill="#10454C"/>
<path d="M35.7587 87.4765C35.7587 91.7229 34.6784 95.2616 33.4016 95.2616C32.1248 95.2616 31.0444 91.7229 31.0444 87.4765C31.0444 83.2301 32.1248 79.6914 33.4016 79.6914C34.6784 79.6914 35.7587 83.0885 35.7587 87.4765Z" fill="#0093B3"/>
<path d="M42.2411 98.6584C42.2411 102.622 41.1608 105.877 39.884 105.877C38.6072 105.877 37.5269 102.622 37.5269 98.6584C37.5269 94.695 38.6072 91.4395 39.884 91.4395C41.1608 91.4395 42.2411 94.695 42.2411 98.6584Z" fill="#0093B3"/>
<path d="M48.5264 108.425C48.5264 111.964 47.5442 114.795 46.4639 114.795C45.3835 114.795 44.4014 111.964 44.4014 108.425C44.4014 104.887 45.3835 102.056 46.4639 102.056C47.5442 102.056 48.5264 104.887 48.5264 108.425Z" fill="#0093B3"/>
<path d="M54.4194 115.927C54.4194 119.183 53.6336 121.731 52.7497 121.731C51.8658 121.731 51.0801 119.183 51.0801 115.927C51.0801 112.672 51.8658 110.124 52.7497 110.124C53.6336 110.124 54.4194 112.672 54.4194 115.927Z" fill="#0093B3"/>
<path d="M60.705 121.731C60.705 124.987 59.9193 127.535 59.0354 127.535C58.1514 127.535 57.3657 124.987 57.3657 121.731C57.3657 118.476 58.1514 115.928 59.0354 115.928C60.0175 115.928 60.705 118.476 60.705 121.731Z" fill="#0093B3"/>
<path d="M67.7768 125.836C67.7768 129.091 66.9911 131.639 66.1071 131.639C65.2232 131.639 64.4375 129.091 64.4375 125.836C64.4375 122.58 65.2232 120.032 66.1071 120.032C67.0893 120.032 67.7768 122.58 67.7768 125.836Z" fill="#0093B3"/>
<path d="M34.2857 108.426C34.2857 112.531 33.2053 115.928 31.8304 115.928C30.4554 115.928 29.375 112.531 29.375 108.426C29.375 104.321 30.4554 100.924 31.8304 100.924C33.2053 100.924 34.2857 104.179 34.2857 108.426Z" fill="#0093B3"/>
<path d="M41.0621 116.636C41.0621 120.458 39.9817 123.572 38.6067 123.572C37.2317 123.572 36.1514 120.458 36.1514 116.636C36.1514 112.814 37.2317 109.7 38.6067 109.7C39.9817 109.7 41.0621 112.814 41.0621 116.636Z" fill="#0093B3"/>
<path d="M47.6427 123.713C47.6427 127.111 46.6606 129.942 45.482 129.942C44.3034 129.942 43.3213 127.111 43.3213 123.713C43.3213 120.316 44.3034 117.485 45.482 117.485C46.6606 117.627 47.6427 120.316 47.6427 123.713Z" fill="#0093B3"/>
<path d="M53.8301 129.941C53.8301 133.055 53.0444 135.603 52.0623 135.603C51.0801 135.603 50.2944 133.055 50.2944 129.941C50.2944 126.827 51.0801 124.279 52.0623 124.279C53.0444 124.421 53.8301 126.827 53.8301 129.941Z" fill="#0093B3"/>
<path d="M60.4102 135.602C60.4102 138.716 59.6245 141.264 58.6424 141.264C57.6602 141.264 56.8745 138.716 56.8745 135.602C56.8745 132.488 57.6602 129.94 58.6424 129.94C59.6245 129.94 60.4102 132.488 60.4102 135.602Z" fill="#0093B3"/>
<path d="M67.1871 141.264C67.1871 144.378 66.4013 146.926 65.4192 146.926C64.4371 146.926 63.6514 144.378 63.6514 141.264C63.6514 138.15 64.4371 135.603 65.4192 135.603C66.4013 135.603 67.1871 138.15 67.1871 141.264Z" fill="#0093B3"/>
<path d="M706.069 103.752L704.006 52.7949C704.006 52.7949 685.738 90.1634 655.292 112.245L656.078 143.81C656.176 143.81 666.096 141.12 706.069 103.752Z" fill="#006C83"/>
<path d="M706.068 103.754C706.068 103.754 672.479 135.319 656.176 143.812L663.542 148.341L713.042 106.726L706.068 103.754Z" fill="#10454C"/>
<path d="M680.14 99.6491C680.239 103.188 681.417 106.019 682.792 105.877C684.167 105.736 685.149 102.905 685.149 99.366C685.051 95.8273 683.873 92.9964 682.498 93.1379C681.123 93.1379 680.042 96.1104 680.14 99.6491Z" fill="#0093B3"/>
<path d="M673.364 107.434C673.462 110.69 674.346 113.237 675.426 113.096C676.507 113.096 677.292 110.406 677.194 107.151C677.096 103.895 676.212 101.347 675.132 101.489C674.051 101.631 673.266 104.32 673.364 107.434Z" fill="#0093B3"/>
<path d="M666.096 113.663C666.194 116.918 667.078 119.466 668.158 119.324C669.239 119.324 670.024 116.635 669.926 113.379C669.828 110.124 668.944 107.576 667.864 107.718C666.783 107.859 665.997 110.548 666.096 113.663Z" fill="#0093B3"/>
<path d="M657.846 118.333C657.944 121.589 658.828 124.137 659.908 123.995C660.989 123.995 661.774 121.306 661.676 118.05C661.578 114.795 660.694 112.247 659.614 112.388C658.533 112.388 657.747 115.078 657.846 118.333Z" fill="#0093B3"/>
<path d="M681.614 114.937C681.712 118.334 682.89 121.024 684.364 121.024C685.837 120.882 686.917 118.051 686.819 114.654C686.721 111.257 685.542 108.567 684.069 108.567C682.596 108.709 681.515 111.54 681.614 114.937Z" fill="#0093B3"/>
<path d="M674.444 121.447C674.542 124.561 675.524 126.967 676.605 126.967C677.783 126.967 678.569 124.278 678.471 121.305C678.373 118.191 677.39 115.785 676.31 115.785C675.23 115.785 674.346 118.475 674.444 121.447Z" fill="#0093B3"/>
<path d="M666.783 127.534C666.882 130.648 667.864 133.054 668.944 133.054C670.123 133.054 670.908 130.365 670.81 127.392C670.712 124.278 669.73 121.872 668.649 121.872C667.569 121.872 666.685 124.42 666.783 127.534Z" fill="#0093B3"/>
<path d="M658.926 133.621C659.024 136.735 660.006 139.141 661.087 139.141C662.265 139.141 663.051 136.452 662.953 133.479C662.854 130.365 661.872 127.959 660.792 127.959C659.712 127.959 658.828 130.507 658.926 133.621Z" fill="#0093B3"/>
<path d="M-2.05371 155.135L219.713 246.716L510.427 239.781L735.238 131.355V394.067L351.713 354.009L-2.05371 411.902V155.135Z" fill="#727F97"/>
<path d="M-2.05371 82.3802C-2.05371 82.3802 106.276 241.338 366.641 239.639C599.114 238.224 735.336 70.4902 735.336 70.4902V183.303C735.336 183.303 592.828 254.502 368.704 264.976C144.58 275.451 -2.05371 180.331 -2.05371 180.331V82.3802Z" fill="#BCCDE0"/>
<path d="M-2.05371 89.7406C-2.05371 89.7406 106.276 248.698 366.641 246.999C599.114 245.584 735.336 77.8506 735.336 77.8506V190.664C735.336 190.664 592.828 261.862 368.704 272.336C144.481 282.811 -2.05371 187.833 -2.05371 187.833V89.7406Z" fill="#B7CCE4"/>
<path d="M-7.16058 102.622C-7.16058 102.622 101.857 252.379 363.99 250.822C598.132 249.406 735.14 91.4395 735.14 91.4395V197.741C735.14 197.741 591.65 264.835 365.954 274.602C140.357 284.368 -7.25879 194.91 -7.25879 194.91V102.622H-7.16058Z" fill="#B4C7DE"/>
<path d="M3.25 286.208L15.1339 384.866L24.366 382.035L12.0893 285.925L3.25 286.208Z" fill="#C6C6C6"/>
<path d="M58.3477 299.089L70.1333 375.383L76.1244 374.109L64.2405 298.806L58.3477 299.089Z" fill="#C6C6C6"/>
<path d="M104.606 300.222L113.053 365.758L118.749 365.333L110.106 300.363L104.606 300.222Z" fill="#C6C6C6"/>
<path d="M144.58 300.363L151.946 363.069L158.035 362.927L150.08 301.071L144.58 300.363Z" fill="#C6C6C6"/>
<path d="M184.258 299.656L192.803 360.38L198.598 359.955L189.66 300.081L184.258 299.656Z" fill="#C6C6C6"/>
<path d="M223.347 303.053L230.91 357.69L235.231 358.681L227.079 303.336L223.347 303.053Z" fill="#C6C6C6"/>
<path d="M260.275 302.486L266.954 356.982L271.177 357.973L265.284 302.769L260.275 302.486Z" fill="#C6C6C6"/>
<path d="M300.053 303.618L303.687 356.698H307.91L303.883 303.901L300.053 303.618Z" fill="#C6C6C6"/>
<path d="M340.32 304.185V356.132L344.151 355.566L343.463 304.468L340.32 304.185Z" fill="#C6C6C6"/>
<path d="M672.676 292.153L665.801 362.927H658.926L665.997 292.295L672.676 292.153Z" fill="#C6C6C6"/>
<path d="M620.328 294.135L610.409 364.908L603.632 364.342L613.846 294.276L620.328 294.135Z" fill="#C6C6C6"/>
<path d="M572.596 297.532L563.266 357.69H556.882L568.176 295.268L572.596 297.532Z" fill="#C6C6C6"/>
<path d="M526.239 298.522L516.614 356.981L511.212 357.689L520.051 300.363L526.239 298.522Z" fill="#C6C6C6"/>
<path d="M479.49 297.249L470.454 356.133L465.347 357.124L475.07 297.532L479.49 297.249Z" fill="#C6C6C6"/>
<path d="M433.329 296.683L425.472 355.566L420.463 356.557L427.436 297.107L433.329 296.683Z" fill="#C6C6C6"/>
<path d="M385.4 298.099L381.079 355.425H376.07L380.784 298.523L385.4 298.099Z" fill="#C6C6C6"/>
<path d="M-0.0893555 284.51L11.7945 383.168L21.0266 380.196L8.65169 284.085L-0.0893555 284.51Z" fill="#C6C6C6"/>
<path d="M55.0083 297.389L66.6958 373.542L72.6868 372.41L60.9011 296.965L55.0083 297.389Z" fill="#C6C6C6"/>
<path d="M101.268 298.381L109.714 364.059L115.312 363.634L106.768 298.522L101.268 298.381Z" fill="#C6C6C6"/>
<path d="M141.24 298.664L148.606 361.228L154.696 361.086L146.74 299.23L141.24 298.664Z" fill="#C6C6C6"/>
<path d="M180.919 297.956L189.464 358.538L195.258 358.114L186.321 298.239L180.919 297.956Z" fill="#C6C6C6"/>
<path d="M220.008 301.213L227.57 355.992L231.793 356.841L223.642 301.496L220.008 301.213Z" fill="#C6C6C6"/>
<path d="M256.936 300.646L263.516 355.283L267.838 356.132L261.847 301.07L256.936 300.646Z" fill="#C6C6C6"/>
<path d="M296.713 301.92L300.347 355H304.472L300.544 302.203L296.713 301.92Z" fill="#C6C6C6"/>
<path d="M336.882 302.486V354.434L340.811 353.868L340.123 302.628L336.882 302.486Z" fill="#C6C6C6"/>
<path d="M669.337 290.455L662.462 361.087H655.489L662.658 290.597L669.337 290.455Z" fill="#C6C6C6"/>
<path d="M616.989 292.437L607.069 363.21L600.292 362.644L610.507 292.578L616.989 292.437Z" fill="#C6C6C6"/>
<path d="M569.256 295.833L559.828 355.849H553.444L564.837 293.568L569.256 295.833Z" fill="#C6C6C6"/>
<path d="M522.802 296.683L513.275 355.142L507.775 355.849L516.713 298.523L522.802 296.683Z" fill="#C6C6C6"/>
<path d="M476.052 295.408L467.114 354.433L462.007 355.424L471.731 295.691L476.052 295.408Z" fill="#C6C6C6"/>
<path d="M429.891 294.984L422.132 353.726L417.025 354.717L424.097 295.267L429.891 294.984Z" fill="#C6C6C6"/>
<path d="M382.061 296.399L377.739 353.585H372.73L377.445 296.683L382.061 296.399Z" fill="#C6C6C6"/>
<path d="M-2.05371 265.684C-2.05371 265.684 47.5443 300.504 366.641 297.532C685.738 294.559 735.336 255.917 735.336 255.917V291.587L366.641 306.449L-2.05371 297.532V265.684Z" fill="#969BA9"/>
<path d="M-1.66064 256.059C-1.66064 256.059 47.9374 295.409 367.034 292.437C686.131 289.464 735.729 249.406 735.729 249.406V286.492L367.034 301.354L-1.66064 292.437V256.059Z" fill="#8C9CAB"/>
<path opacity="0.25" d="M-3.13379 271.63C-3.13379 271.63 49.0178 305.884 368.115 302.912C687.212 299.939 736.81 261.297 736.81 261.297L734.551 306.45L368.115 311.688H-1.56237L-3.13379 271.63Z" fill="#969BA9"/>
<path opacity="0.25" d="M-3.13394 279.557C-3.13394 279.557 49.0177 313.811 368.115 310.839C687.212 307.866 736.81 269.224 736.81 269.224L737.203 314.377L367.329 316.359L-6.375 326.833L-3.13394 279.557Z" fill="#969BA9"/>
<path d="M-1.36572 370.571C-1.36572 370.571 199.875 346.366 362.713 347.781C525.552 349.197 736.024 347.781 736.024 347.781V399.305C736.024 399.305 561.695 366.89 361.731 370.571C149.393 374.392 -1.36572 417.564 -1.36572 417.564V370.571Z" fill="#C6CFD6"/>
<path d="M-1.85693 387.697C-1.85693 387.697 188.383 357.548 362.222 357.972C586.052 358.538 735.533 364.767 735.533 364.767V370.853C735.533 370.853 560.516 359.529 360.552 363.209C148.214 367.031 -1.75872 393.784 -1.75872 393.784L-1.85693 387.697Z" fill="#FFC97B"/>
<path d="M-2.05344 199.582C-2.05344 199.582 174.044 278.565 342.285 276.018C533.114 273.045 735.337 194.628 735.337 194.628V210.481C735.337 210.481 526.239 281.255 342.285 281.255C184.258 281.255 39.9821 242.612 -3.13379 218.974L-2.05344 199.582Z" fill="#A1BACC"/>
<path opacity="0.21" d="M-8.04443 360.378C-8.04443 360.378 246.526 342.119 340.811 342.119C433.82 342.119 668.846 338.722 741.721 339.854V350.47L340.811 353.867L-8.04443 377.081V360.378Z" fill="#C6CFD6"/>
<path opacity="0.21" d="M-8.04443 354.009C-8.04443 354.009 246.526 335.75 340.811 335.75C433.82 335.75 668.846 332.353 741.721 333.485V350.329L340.91 347.357L-8.04443 370.853V354.009Z" fill="#C6CFD6"/>
<path opacity="0.21" d="M-8.04443 348.63C-8.04443 348.63 246.526 330.371 340.811 330.371C433.82 330.371 668.846 326.974 741.721 328.106V344.95L340.91 341.978L-8.04443 370.853V348.63Z" fill="#C6CFD6"/>
<path opacity="0.21" d="M-6.375 339.714C-6.375 339.714 248.196 322.728 342.481 322.728C435.489 322.728 664.328 321.313 737.104 322.445L735.926 347.923L340.713 348.914L-3.42858 365.758L-6.375 339.714Z" fill="#C6CFD6"/>
<path d="M-3.13379 271.63C-3.13379 271.63 97.8301 303.619 341.008 300.647C655.489 296.825 736.81 261.297 736.81 261.297L735.73 286.492C735.73 286.492 416.436 308.432 339.829 308.432C136.232 308.432 -1.66058 292.437 -1.66058 292.437L-3.13379 271.63Z" fill="#8C9CAB"/>
<path opacity="0.39" d="M92.0356 341.837C91.4463 341.129 91.5445 339.855 91.9374 338.865C92.3302 337.874 92.8213 337.024 92.8213 335.892C92.8213 335.043 92.6249 333.769 93.2141 333.486C93.607 333.203 93.9999 333.91 94.0981 334.618C94.1963 335.326 94.0981 335.892 94.2945 336.6C94.4909 337.166 94.7856 337.449 94.982 337.874C95.5713 338.865 95.7677 340.28 95.4731 341.412" fill="#1828AA"/>
<path opacity="0.39" d="M75.3393 334.477C74.75 333.911 74.8482 332.779 75.2411 331.929C75.6339 331.08 76.125 330.372 76.125 329.382C76.125 328.674 75.9286 327.683 76.5179 327.4C76.9107 327.258 77.3036 327.825 77.4018 328.391C77.5 328.957 77.4018 329.523 77.5982 329.948C77.7946 330.372 78.0893 330.656 78.2857 330.939C78.875 331.788 79.0714 332.92 78.7768 333.911" fill="#1828AA"/>
<path opacity="0.39" d="M88.4999 324.003C87.9106 323.437 88.0089 322.304 88.4017 321.455C88.7946 320.606 89.2856 319.898 89.2856 318.907C89.2856 318.199 89.0892 317.208 89.6785 316.925C90.0714 316.784 90.4642 317.35 90.5624 317.916C90.6606 318.482 90.5624 319.049 90.7589 319.473C90.9553 319.898 91.2499 320.181 91.4464 320.464C92.0356 321.313 92.2321 322.446 91.9374 323.437" fill="#1828AA"/>
<path opacity="0.39" d="M98.0263 341.554C97.437 340.847 97.5352 339.29 97.9281 338.157C98.3209 337.025 98.812 336.034 98.812 334.902C98.812 333.911 98.6156 332.637 99.2049 332.354C99.5977 332.071 99.9906 332.92 100.089 333.628C100.187 334.335 100.089 335.185 100.285 335.751C100.482 336.317 100.776 336.742 100.973 337.166C101.562 338.299 101.758 339.856 101.464 341.13" fill="#1828AA"/>
<path opacity="0.39" d="M102.643 345.8C102.054 345.092 102.152 343.818 102.545 342.828C102.938 341.837 103.429 340.987 103.429 339.855C103.429 339.006 103.232 337.732 103.822 337.449C104.214 337.166 104.607 337.873 104.705 338.581C104.804 339.289 104.705 339.855 104.902 340.563C105.098 341.129 105.393 341.412 105.589 341.837C106.179 342.828 106.375 344.243 106.08 345.375" fill="#1828AA"/>
<path opacity="0.39" d="M37.9197 337.449C37.134 336.6 37.3304 334.901 37.8215 333.627C38.3126 332.353 38.9019 331.221 38.9019 329.805C38.9019 328.673 38.6072 327.258 39.2947 326.833C39.884 326.55 40.3751 327.399 40.4733 328.248C40.5715 329.098 40.4733 329.947 40.6697 330.655C40.8661 331.221 41.259 331.787 41.5536 332.212C42.2411 333.486 42.5358 335.184 42.1429 336.741" fill="#1828AA"/>
<path opacity="0.39" d="M33.1072 352.312C32.3215 351.463 32.5179 349.764 33.009 348.49C33.5001 347.216 34.0894 346.084 34.0894 344.669C34.0894 343.536 33.7947 342.121 34.4822 341.696C35.0715 341.413 35.5626 342.262 35.6608 343.112C35.759 343.961 35.6608 344.81 35.8572 345.518C36.0536 346.084 36.4465 346.65 36.7411 347.075C37.4286 348.349 37.7233 350.047 37.3304 351.604" fill="#1828AA"/>
<path opacity="0.39" d="M43.9104 357.832C43.1247 356.982 43.3212 355.284 43.8122 354.01C44.3033 352.736 44.8926 351.604 44.8926 350.188C44.8926 349.056 44.5979 347.64 45.2854 347.216C45.8747 346.933 46.3658 347.782 46.464 348.631C46.5622 349.48 46.464 350.33 46.6604 351.037C46.8569 351.604 47.2497 352.17 47.5444 352.594C48.2319 353.868 48.5265 355.567 48.1336 357.124" fill="#1828AA"/>
<path opacity="0.39" d="M54.9104 356.416C54.1247 355.566 54.3212 353.868 54.8122 352.594C55.3033 351.32 55.8926 350.188 55.8926 348.772C55.8926 347.64 55.5979 346.224 56.2854 345.8C56.8747 345.517 57.3658 346.366 57.464 347.215C57.5622 348.064 57.464 348.914 57.6604 349.621C57.8569 350.188 58.2497 350.754 58.5444 351.178C59.2318 352.452 59.5265 354.151 59.1336 355.708" fill="#1828AA"/>
<path opacity="0.39" d="M19.7498 325.842C18.9641 324.993 19.1605 323.295 19.6516 322.021C20.1426 320.747 20.7319 319.614 20.7319 318.199C20.7319 317.067 20.4373 315.651 21.1248 315.226C21.7141 314.943 22.2051 315.793 22.3034 316.642C22.4016 317.491 22.3034 318.34 22.4998 319.048C22.6962 319.614 23.0891 320.181 23.3837 320.605C24.0712 321.879 24.3658 323.578 23.973 325.135" fill="#1828AA"/>
<path opacity="0.39" d="M70.0354 325.134C69.2497 324.285 69.4462 322.587 69.9372 321.313C70.4283 320.039 71.0176 318.906 71.0176 317.491C71.0176 316.359 70.7229 314.943 71.4104 314.518C71.9997 314.235 72.4908 315.085 72.589 315.934C72.6872 316.783 72.589 317.632 72.7854 318.34C72.9819 318.906 73.3747 319.473 73.6694 319.897C74.3569 321.171 74.6515 322.87 74.2586 324.427" fill="#1828AA"/>
<path opacity="0.39" d="M96.2587 353.869C95.6694 353.162 95.7676 351.888 96.1605 350.897C96.5534 349.906 97.0444 349.057 97.0444 347.924C97.0444 347.075 96.848 345.801 97.4373 345.518C97.8301 345.235 98.223 345.943 98.3212 346.65C98.4194 347.358 98.3212 347.924 98.5176 348.632C98.7141 349.198 99.0087 349.481 99.2051 349.906C99.7944 350.897 99.9909 352.312 99.6962 353.445" fill="#1828AA"/>
<path opacity="0.39" d="M124.839 340.138C124.25 339.43 124.348 338.156 124.741 337.165C125.133 336.175 125.624 335.325 125.624 334.193C125.624 333.344 125.428 332.07 126.017 331.787C126.41 331.503 126.803 332.211 126.901 332.919C126.999 333.627 126.901 334.193 127.098 334.901C127.294 335.467 127.589 335.75 127.785 336.175C128.375 337.165 128.571 338.581 128.276 339.713" fill="#1828AA"/>
<path opacity="0.39" d="M137.999 339.572C137.41 338.865 137.508 337.591 137.901 336.6C138.294 335.609 138.785 334.76 138.785 333.627C138.785 332.778 138.589 331.504 139.178 331.221C139.571 330.938 139.964 331.646 140.062 332.354C140.16 333.061 140.062 333.627 140.258 334.335C140.455 334.901 140.749 335.184 140.946 335.609C141.535 336.6 141.732 338.015 141.437 339.148" fill="#1828AA"/>
<path opacity="0.39" d="M158.919 338.157C158.33 337.45 158.428 336.176 158.821 335.185C159.214 334.194 159.705 333.345 159.705 332.212C159.705 331.363 159.509 330.089 160.098 329.806C160.491 329.523 160.884 330.231 160.982 330.938C161.08 331.646 160.982 332.212 161.178 332.92C161.375 333.486 161.669 333.769 161.866 334.194C162.455 335.185 162.651 336.6 162.357 337.733" fill="#1828AA"/>
<path opacity="0.39" d="M165.499 338.015C164.91 337.307 165.008 336.033 165.401 335.042C165.794 334.052 166.285 333.202 166.285 332.07C166.285 331.221 166.088 329.947 166.678 329.664C167.07 329.38 167.463 330.088 167.561 330.796C167.66 331.504 167.561 332.07 167.758 332.778C167.954 333.344 168.249 333.627 168.445 334.052C169.035 335.042 169.231 336.458 168.936 337.59" fill="#1828AA"/>
<path opacity="0.39" d="M171.589 337.733C171 337.025 171.098 335.751 171.491 334.76C171.883 333.769 172.375 332.92 172.375 331.788C172.375 330.938 172.178 329.664 172.767 329.381C173.16 329.098 173.553 329.806 173.651 330.514C173.749 331.221 173.651 331.788 173.848 332.495C174.044 333.062 174.339 333.345 174.535 333.769C175.124 334.76 175.321 336.176 175.026 337.308" fill="#1828AA"/>
<path opacity="0.39" d="M174.241 348.773C173.651 348.065 173.75 346.791 174.142 345.8C174.535 344.809 175.026 343.96 175.026 342.828C175.026 341.978 174.83 340.704 175.419 340.421C175.812 340.138 176.205 340.846 176.303 341.554C176.401 342.261 176.303 342.828 176.5 343.535C176.696 344.102 176.991 344.385 177.187 344.809C177.776 345.8 177.973 347.216 177.678 348.348" fill="#1828AA"/>
<path opacity="0.39" d="M178.758 348.773C178.169 348.065 178.267 346.791 178.66 345.8C179.053 344.809 179.544 343.96 179.544 342.828C179.544 341.978 179.348 340.704 179.937 340.421C180.33 340.138 180.723 340.846 180.821 341.554C180.919 342.261 180.821 342.828 181.017 343.535C181.214 344.102 181.508 344.385 181.705 344.809C182.294 345.8 182.49 347.216 182.196 348.348" fill="#1828AA"/>
<path opacity="0.39" d="M166.481 321.879C165.892 321.171 165.99 319.897 166.383 318.907C166.776 317.916 167.267 317.066 167.267 315.934C167.267 315.085 167.071 313.811 167.66 313.528C168.053 313.245 168.446 313.952 168.544 314.66C168.642 315.368 168.544 315.934 168.74 316.642C168.937 317.208 169.231 317.491 169.428 317.916C170.017 318.907 170.214 320.322 169.919 321.454" fill="#1828AA"/>
<path opacity="0.39" d="M195.847 321.312C195.258 320.604 195.356 319.33 195.749 318.339C196.142 317.348 196.633 316.499 196.633 315.367C196.633 314.517 196.436 313.243 197.026 312.96C197.419 312.677 197.811 313.385 197.91 314.093C198.008 314.8 197.91 315.367 198.106 316.074C198.302 316.641 198.597 316.924 198.794 317.348C199.383 318.339 199.579 319.755 199.285 320.887" fill="#1828AA"/>
<path opacity="0.39" d="M202.821 327.54C202.232 326.832 202.33 325.559 202.723 324.568C203.116 323.577 203.607 322.728 203.607 321.595C203.607 320.746 203.411 319.472 204 319.189C204.393 318.906 204.786 319.614 204.884 320.321C204.982 321.029 204.884 321.595 205.08 322.303C205.277 322.869 205.571 323.152 205.768 323.577C206.357 324.568 206.553 325.983 206.259 327.116" fill="#1828AA"/>
<path opacity="0.39" d="M207.633 320.746C207.044 320.039 207.142 318.765 207.535 317.774C207.928 316.783 208.419 315.934 208.419 314.801C208.419 313.952 208.223 312.678 208.812 312.395C209.205 312.112 209.597 312.82 209.696 313.527C209.794 314.235 209.696 314.801 209.892 315.509C210.089 316.075 210.383 316.358 210.58 316.783C211.169 317.774 211.365 319.189 211.071 320.322" fill="#1828AA"/>
<path opacity="0.39" d="M210.481 326.974C209.892 326.266 209.99 324.992 210.383 324.001C210.776 323.01 211.267 322.161 211.267 321.029C211.267 320.18 211.071 318.906 211.66 318.623C212.053 318.339 212.446 319.047 212.544 319.755C212.642 320.463 212.544 321.029 212.74 321.737C212.937 322.303 213.231 322.586 213.428 323.01C214.017 324.001 214.213 325.417 213.919 326.549" fill="#1828AA"/>
<path opacity="0.39" d="M213.035 340.847C212.445 340.139 212.544 338.865 212.936 337.874C213.329 336.884 213.82 336.034 213.82 334.902C213.82 334.053 213.624 332.779 214.213 332.496C214.606 332.212 214.999 332.92 215.097 333.628C215.195 334.336 215.097 334.902 215.293 335.61C215.49 336.176 215.785 336.459 215.981 336.884C216.57 337.874 216.767 339.29 216.472 340.422" fill="#1828AA"/>
<path opacity="0.39" d="M237.293 345.235C236.704 344.527 236.802 343.253 237.195 342.262C237.588 341.271 238.079 340.422 238.079 339.29C238.079 338.44 237.883 337.166 238.472 336.883C238.865 336.6 239.258 337.308 239.356 338.016C239.454 338.723 239.356 339.29 239.552 339.997C239.749 340.563 240.043 340.847 240.24 341.271C240.829 342.262 241.026 343.678 240.731 344.81" fill="#1828AA"/>
<path opacity="0.39" d="M243.285 344.951C242.696 344.244 242.794 342.97 243.187 341.979C243.58 340.988 244.071 340.139 244.071 339.006C244.071 338.157 243.874 336.883 244.464 336.6C244.856 336.317 245.249 337.025 245.348 337.732C245.446 338.44 245.348 339.006 245.544 339.714C245.74 340.28 246.035 340.563 246.231 340.988C246.821 341.979 247.017 343.394 246.723 344.527" fill="#1828AA"/>
<path opacity="0.39" d="M248.097 339.006C247.508 338.298 247.606 337.024 247.999 336.034C248.392 335.043 248.883 334.193 248.883 333.061C248.883 332.212 248.686 330.938 249.276 330.655C249.669 330.372 250.061 331.079 250.16 331.787C250.258 332.495 250.16 333.061 250.356 333.769C250.552 334.335 250.847 334.618 251.044 335.043C251.633 336.034 251.829 337.449 251.535 338.581" fill="#1828AA"/>
<path opacity="0.39" d="M238.276 333.627C237.687 332.919 237.785 331.645 238.178 330.655C238.57 329.664 239.062 328.815 239.062 327.682C239.062 326.833 238.865 325.559 239.454 325.276C239.847 324.993 240.24 325.7 240.338 326.408C240.437 327.116 240.338 327.682 240.535 328.39C240.731 328.956 241.026 329.239 241.222 329.664C241.812 330.655 242.008 332.07 241.713 333.202" fill="#1828AA"/>
<path opacity="0.39" d="M245.445 325.56C244.856 324.852 244.954 323.578 245.347 322.587C245.74 321.596 246.231 320.747 246.231 319.615C246.231 318.765 246.035 317.492 246.624 317.208C247.017 316.925 247.41 317.633 247.508 318.341C247.606 319.049 247.508 319.615 247.704 320.322C247.901 320.889 248.195 321.172 248.392 321.596C248.981 322.587 249.177 324.003 248.883 325.135" fill="#1828AA"/>
<path opacity="0.39" d="M271.57 324.569C270.981 323.861 271.079 322.587 271.472 321.596C271.865 320.605 272.356 319.756 272.356 318.624C272.356 317.774 272.16 316.5 272.749 316.217C273.142 315.934 273.535 316.642 273.633 317.35C273.731 318.057 273.633 318.624 273.829 319.331C274.026 319.897 274.32 320.181 274.517 320.605C275.106 321.596 275.302 323.012 275.008 324.144" fill="#1828AA"/>
<path opacity="0.39" d="M283.258 324.285C282.668 323.578 282.767 322.304 283.16 321.313C283.552 320.322 284.043 319.473 284.043 318.34C284.043 317.491 283.847 316.217 284.436 315.934C284.829 315.651 285.222 316.359 285.32 317.066C285.418 317.774 285.32 318.34 285.517 319.048C285.713 319.614 286.008 319.897 286.204 320.322C286.793 321.313 286.99 322.728 286.695 323.861" fill="#1828AA"/>
<path opacity="0.39" d="M278.936 336.883C278.347 336.175 278.445 334.901 278.838 333.91C279.231 332.92 279.722 332.07 279.722 330.938C279.722 330.089 279.526 328.815 280.115 328.532C280.508 328.249 280.901 328.956 280.999 329.664C281.097 330.372 280.999 330.938 281.195 331.646C281.392 332.212 281.686 332.495 281.883 332.92C282.472 333.91 282.669 335.326 282.374 336.458" fill="#1828AA"/>
<path opacity="0.39" d="M286.794 336.601C286.205 335.893 286.303 334.619 286.696 333.628C287.089 332.637 287.58 331.788 287.58 330.656C287.58 329.806 287.383 328.533 287.972 328.249C288.365 327.966 288.758 328.674 288.856 329.382C288.955 330.09 288.856 330.656 289.053 331.364C289.249 331.93 289.544 332.213 289.74 332.637C290.33 333.628 290.526 335.044 290.231 336.176" fill="#1828AA"/>
<path opacity="0.39" d="M292.49 336.317C291.901 335.609 291.999 334.335 292.392 333.344C292.785 332.353 293.276 331.504 293.276 330.372C293.276 329.522 293.079 328.248 293.669 327.965C294.062 327.682 294.454 328.39 294.553 329.098C294.651 329.805 294.553 330.372 294.749 331.079C294.946 331.646 295.24 331.929 295.437 332.353C296.026 333.344 296.222 334.76 295.928 335.892" fill="#1828AA"/>
<path opacity="0.39" d="M309.873 336.317C309.284 335.609 309.382 334.335 309.775 333.344C310.168 332.353 310.659 331.504 310.659 330.372C310.659 329.522 310.463 328.248 311.052 327.965C311.445 327.682 311.838 328.39 311.936 329.098C312.034 329.805 311.936 330.372 312.132 331.079C312.329 331.646 312.623 331.929 312.82 332.353C313.409 333.344 313.606 334.76 313.311 335.892" fill="#1828AA"/>
<path opacity="0.39" d="M314.784 330.939C314.195 330.231 314.293 328.957 314.686 327.966C315.079 326.975 315.57 326.126 315.57 324.994C315.57 324.144 315.373 322.87 315.963 322.587C316.356 322.304 316.748 323.012 316.847 323.72C316.945 324.427 316.847 324.994 317.043 325.701C317.239 326.268 317.534 326.551 317.731 326.975C318.32 327.966 318.516 329.382 318.222 330.514" fill="#1828AA"/>
<path opacity="0.39" d="M320.284 323.153C319.695 322.445 319.793 321.171 320.186 320.18C320.579 319.189 321.07 318.34 321.07 317.208C321.07 316.358 320.873 315.084 321.463 314.801C321.856 314.518 322.248 315.226 322.347 315.934C322.445 316.641 322.347 317.208 322.543 317.915C322.739 318.481 323.034 318.765 323.231 319.189C323.82 320.18 324.016 321.596 323.722 322.728" fill="#1828AA"/>
<path opacity="0.39" d="M322.052 330.797C321.463 330.089 321.561 328.815 321.954 327.825C322.347 326.834 322.838 325.984 322.838 324.852C322.838 324.003 322.641 322.729 323.231 322.446C323.624 322.163 324.016 322.87 324.115 323.578C324.213 324.286 324.115 324.852 324.311 325.56C324.508 326.126 324.802 326.409 324.999 326.834C325.588 327.825 325.784 329.24 325.49 330.372" fill="#1828AA"/>
<path opacity="0.39" d="M328.338 335.185C327.749 334.477 327.847 333.203 328.24 332.212C328.633 331.221 329.124 330.372 329.124 329.24C329.124 328.39 328.928 327.117 329.517 326.833C329.91 326.55 330.303 327.258 330.401 327.966C330.499 328.674 330.401 329.24 330.597 329.948C330.794 330.514 331.088 330.797 331.285 331.221C331.874 332.212 332.07 333.628 331.776 334.76" fill="#1828AA"/>
<path opacity="0.39" d="M321.267 342.545C320.677 341.837 320.775 340.563 321.168 339.573C321.561 338.582 322.052 337.732 322.052 336.6C322.052 335.751 321.856 334.477 322.445 334.194C322.838 333.911 323.231 334.618 323.329 335.326C323.427 336.034 323.329 336.6 323.525 337.308C323.722 337.874 324.017 338.157 324.213 338.582C324.802 339.573 324.999 340.988 324.704 342.12" fill="#1828AA"/>
<path opacity="0.39" d="M347.785 330.939C347.195 330.231 347.294 328.957 347.686 327.966C348.079 326.975 348.57 326.126 348.57 324.994C348.57 324.144 348.374 322.87 348.963 322.587C349.356 322.304 349.749 323.012 349.847 323.72C349.945 324.427 349.847 324.994 350.044 325.701C350.24 326.268 350.535 326.551 350.731 326.975C351.32 327.966 351.517 329.382 351.222 330.514" fill="#1828AA"/>
<path opacity="0.39" d="M369.686 322.446C369.097 321.738 369.195 320.464 369.588 319.473C369.981 318.482 370.472 317.633 370.472 316.501C370.472 315.651 370.276 314.377 370.865 314.094C371.258 313.811 371.651 314.519 371.749 315.227C371.847 315.934 371.749 316.501 371.945 317.208C372.142 317.774 372.436 318.058 372.633 318.482C373.222 319.473 373.419 320.888 373.124 322.021" fill="#1828AA"/>
<path opacity="0.39" d="M358.097 322.869C357.507 322.162 357.606 320.888 357.998 319.897C358.391 318.906 358.882 318.057 358.882 316.924C358.882 316.075 358.686 314.801 359.275 314.518C359.668 314.235 360.061 314.943 360.159 315.65C360.257 316.358 360.159 316.924 360.355 317.632C360.552 318.198 360.847 318.481 361.043 318.906C361.632 319.897 361.829 321.312 361.534 322.445" fill="#1828AA"/>
<path opacity="0.39" d="M367.427 330.23C368.017 329.522 367.82 328.248 367.525 327.257C367.231 326.266 366.74 325.417 366.74 324.285C366.74 323.435 366.936 322.161 366.445 321.878C366.052 321.595 365.659 322.303 365.659 323.011C365.561 323.718 365.659 324.285 365.463 324.992C365.365 325.559 365.07 325.842 364.775 326.266C364.284 327.257 364.088 328.673 364.383 329.805" fill="#1828AA"/>
<path opacity="0.39" d="M363.008 336.458C363.597 335.75 363.401 334.477 363.106 333.486C362.811 332.495 362.32 331.646 362.32 330.513C362.32 329.664 362.517 328.39 362.026 328.107C361.633 327.824 361.24 328.532 361.24 329.239C361.142 329.947 361.24 330.513 361.044 331.221C360.945 331.787 360.651 332.07 360.356 332.495C359.865 333.486 359.669 334.901 359.963 336.034" fill="#1828AA"/>
<path opacity="0.39" d="M367.722 342.827C368.311 342.12 368.114 340.846 367.82 339.855C367.525 338.864 367.034 338.015 367.034 336.882C367.034 336.033 367.231 334.759 366.739 334.476C366.347 334.193 365.954 334.901 365.954 335.608C365.856 336.316 365.954 336.882 365.757 337.59C365.659 338.156 365.365 338.439 365.07 338.864C364.579 339.855 364.382 341.27 364.677 342.403" fill="#1828AA"/>
<path opacity="0.39" d="M387.855 342.827C388.445 342.12 388.248 340.846 387.954 339.855C387.659 338.864 387.168 338.015 387.168 336.882C387.168 336.033 387.364 334.759 386.873 334.476C386.48 334.193 386.088 334.901 386.088 335.608C385.989 336.316 386.088 336.882 385.891 337.59C385.793 338.156 385.498 338.439 385.204 338.864C384.713 339.855 384.516 341.27 384.811 342.403" fill="#1828AA"/>
<path opacity="0.39" d="M394.73 342.12C395.32 341.413 395.123 340.139 394.829 339.148C394.534 338.157 394.043 337.308 394.043 336.175C394.043 335.326 394.239 334.052 393.748 333.769C393.355 333.486 392.963 334.194 392.963 334.901C392.963 335.609 392.963 336.175 392.766 336.883C392.668 337.449 392.373 337.732 392.079 338.157C391.588 339.148 391.391 340.563 391.686 341.696" fill="#1828AA"/>
<path opacity="0.39" d="M400.23 341.979C400.82 341.271 400.623 339.997 400.329 339.006C400.034 338.015 399.543 337.166 399.543 336.034C399.543 335.184 399.739 333.91 399.248 333.627C398.855 333.344 398.463 334.052 398.463 334.76C398.364 335.468 398.463 336.034 398.266 336.741C398.168 337.308 397.873 337.591 397.579 338.015C397.088 339.006 396.891 340.422 397.186 341.554" fill="#1828AA"/>
<path opacity="0.39" d="M405.731 336.458C406.32 335.75 406.124 334.477 405.829 333.486C405.534 332.495 405.043 331.646 405.043 330.513C405.043 329.664 405.24 328.39 404.749 328.107C404.356 327.824 403.963 328.532 403.963 329.239C403.865 329.947 403.963 330.513 403.767 331.221C403.668 331.787 403.374 332.07 403.079 332.495C402.588 333.486 402.392 334.901 402.686 336.034" fill="#1828AA"/>
<path opacity="0.39" d="M397.579 330.372C398.168 329.665 397.971 328.391 397.677 327.4C397.382 326.409 396.891 325.56 396.891 324.427C396.891 323.578 397.087 322.304 396.596 322.021C396.204 321.738 395.811 322.446 395.811 323.153C395.811 323.861 395.811 324.427 395.614 325.135C395.516 325.701 395.221 325.984 394.927 326.409C394.436 327.4 394.239 328.815 394.534 329.948" fill="#1828AA"/>
<path opacity="0.39" d="M403.374 323.577C403.963 322.87 403.766 321.596 403.472 320.605C403.177 319.614 402.686 318.765 402.686 317.632C402.686 316.783 402.882 315.509 402.391 315.226C401.999 314.943 401.606 315.651 401.606 316.358C401.507 317.066 401.606 317.632 401.409 318.34C401.311 318.906 401.016 319.189 400.722 319.614C400.231 320.605 400.034 322.02 400.329 323.153" fill="#1828AA"/>
<path opacity="0.39" d="M413.391 335.325C413.98 334.618 413.784 333.344 413.489 332.353C413.195 331.362 412.704 330.513 412.704 329.38C412.704 328.531 412.9 327.257 412.409 326.974C412.016 326.691 411.623 327.399 411.623 328.106C411.525 328.814 411.623 329.38 411.427 330.088C411.329 330.654 411.034 330.937 410.739 331.362C410.248 332.353 410.052 333.768 410.346 334.901" fill="#1828AA"/>
<path opacity="0.39" d="M436.668 323.294C437.258 322.586 437.061 321.312 436.767 320.322C436.472 319.331 435.981 318.481 435.981 317.349C435.981 316.5 436.177 315.226 435.686 314.943C435.293 314.66 434.901 315.367 434.901 316.075C434.802 316.783 434.901 317.349 434.704 318.057C434.606 318.623 434.311 318.906 434.017 319.331C433.526 320.322 433.329 321.737 433.624 322.869" fill="#1828AA"/>
<path opacity="0.39" d="M442.856 323.153C443.445 322.445 443.249 321.171 442.954 320.18C442.659 319.189 442.168 318.34 442.168 317.208C442.168 316.358 442.365 315.084 441.874 314.801C441.481 314.518 441.088 315.226 441.088 315.934C440.99 316.641 441.088 317.208 440.892 317.915C440.793 318.481 440.499 318.765 440.204 319.189C439.713 320.18 439.517 321.596 439.811 322.728" fill="#1828AA"/>
<path opacity="0.39" d="M448.552 322.587C449.141 321.879 448.945 320.605 448.65 319.615C448.356 318.624 447.865 317.774 447.865 316.642C447.865 315.793 448.061 314.519 447.57 314.236C447.177 313.953 446.784 314.66 446.784 315.368C446.686 316.076 446.784 316.642 446.588 317.35C446.49 317.916 446.195 318.199 445.9 318.624C445.409 319.615 445.213 321.03 445.508 322.162" fill="#1828AA"/>
<path opacity="0.39" d="M445.016 335.467C445.605 334.759 445.409 333.485 445.114 332.494C444.82 331.504 444.329 330.654 444.329 329.522C444.329 328.673 444.525 327.399 444.034 327.116C443.641 326.833 443.248 327.54 443.248 328.248C443.248 328.956 443.248 329.522 443.052 330.23C442.954 330.796 442.659 331.079 442.364 331.504C441.873 332.494 441.677 333.91 441.971 335.042" fill="#1828AA"/>
<path opacity="0.39" d="M452.775 330.23C453.365 329.522 453.168 328.248 452.874 327.257C452.579 326.266 452.088 325.417 452.088 324.285C452.088 323.435 452.284 322.161 451.793 321.878C451.4 321.595 451.008 322.303 451.008 323.011C450.909 323.718 451.008 324.285 450.811 324.992C450.713 325.559 450.418 325.842 450.124 326.266C449.633 327.257 449.436 328.673 449.731 329.805" fill="#1828AA"/>
<path opacity="0.39" d="M458.472 322.869C459.061 322.162 458.864 320.888 458.57 319.897C458.275 318.906 457.784 318.057 457.784 316.924C457.784 316.075 457.981 314.801 457.489 314.518C457.097 314.235 456.704 314.943 456.704 315.65C456.606 316.358 456.704 316.924 456.507 317.632C456.409 318.198 456.114 318.481 455.82 318.906C455.329 319.897 455.132 321.312 455.427 322.445" fill="#1828AA"/>
<path opacity="0.39" d="M464.462 316.359C465.052 315.651 464.855 314.377 464.561 313.386C464.266 312.395 463.775 311.546 463.775 310.414C463.775 309.564 463.971 308.29 463.48 308.007C463.087 307.724 462.695 308.432 462.695 309.14C462.596 309.847 462.695 310.414 462.498 311.121C462.4 311.688 462.105 311.971 461.811 312.395C461.32 313.386 461.123 314.802 461.418 315.934" fill="#1828AA"/>
<path opacity="0.39" d="M482.24 329.381C482.829 328.673 482.633 327.399 482.338 326.409C482.043 325.418 481.552 324.568 481.552 323.436C481.552 322.587 481.749 321.313 481.258 321.03C480.865 320.747 480.472 321.454 480.472 322.162C480.374 322.87 480.472 323.436 480.275 324.144C480.177 324.71 479.883 324.993 479.588 325.418C479.097 326.409 478.9 327.824 479.195 328.956" fill="#1828AA"/>
<path opacity="0.39" d="M488.427 329.239C489.016 328.532 488.82 327.258 488.525 326.267C488.23 325.276 487.739 324.427 487.739 323.294C487.739 322.445 487.936 321.171 487.445 320.888C487.052 320.605 486.659 321.313 486.659 322.021C486.561 322.728 486.659 323.294 486.462 324.002C486.364 324.568 486.07 324.851 485.775 325.276C485.284 326.267 485.087 327.682 485.382 328.815" fill="#1828AA"/>
<path opacity="0.39" d="M494.123 328.815C494.713 328.107 494.516 326.833 494.222 325.842C493.927 324.851 493.436 324.002 493.436 322.87C493.436 322.02 493.632 320.746 493.141 320.463C492.749 320.18 492.356 320.888 492.356 321.596C492.257 322.303 492.356 322.87 492.159 323.577C492.061 324.144 491.766 324.427 491.472 324.851C490.981 325.842 490.784 327.258 491.079 328.39" fill="#1828AA"/>
<path opacity="0.39" d="M490.587 341.554C491.177 340.846 490.98 339.572 490.686 338.581C490.391 337.591 489.9 336.741 489.9 335.609C489.9 334.76 490.096 333.486 489.605 333.203C489.212 332.919 488.82 333.627 488.82 334.335C488.82 335.043 488.82 335.609 488.623 336.317C488.525 336.883 488.23 337.166 487.936 337.591C487.445 338.581 487.248 339.997 487.543 341.129" fill="#1828AA"/>
<path opacity="0.39" d="M498.248 336.458C498.837 335.75 498.641 334.477 498.346 333.486C498.052 332.495 497.561 331.646 497.561 330.513C497.561 329.664 497.757 328.39 497.266 328.107C496.873 327.824 496.48 328.532 496.48 329.239C496.382 329.947 496.48 330.513 496.284 331.221C496.185 331.787 495.891 332.07 495.596 332.495C495.105 333.486 494.909 334.901 495.203 336.034" fill="#1828AA"/>
<path opacity="0.39" d="M504.043 328.956C504.632 328.248 504.436 326.975 504.141 325.984C503.846 324.993 503.355 324.144 503.355 323.011C503.355 322.162 503.552 320.888 503.061 320.605C502.668 320.322 502.275 321.03 502.275 321.737C502.177 322.445 502.275 323.011 502.079 323.719C501.98 324.285 501.686 324.568 501.391 324.993C500.9 325.984 500.704 327.399 500.998 328.532" fill="#1828AA"/>
<path opacity="0.39" d="M510.034 322.587C510.623 321.879 510.426 320.605 510.132 319.615C509.837 318.624 509.346 317.774 509.346 316.642C509.346 315.793 509.543 314.519 509.051 314.236C508.659 313.953 508.266 314.66 508.266 315.368C508.168 316.076 508.266 316.642 508.069 317.35C507.971 317.916 507.676 318.199 507.382 318.624C506.891 319.615 506.694 321.03 506.989 322.162" fill="#1828AA"/>
<path opacity="0.39" d="M528.498 323.012C529.087 322.304 528.891 321.03 528.596 320.039C528.302 319.049 527.811 318.199 527.811 317.067C527.811 316.218 528.007 314.944 527.516 314.661C527.123 314.377 526.73 315.085 526.73 315.793C526.632 316.501 526.73 317.067 526.534 317.775C526.435 318.341 526.141 318.624 525.846 319.049C525.355 320.039 525.159 321.455 525.453 322.587" fill="#1828AA"/>
<path opacity="0.39" d="M534.686 341.979C535.275 341.271 535.078 339.997 534.784 339.006C534.489 338.015 533.998 337.166 533.998 336.034C533.998 335.184 534.194 333.91 533.703 333.627C533.311 333.344 532.918 334.052 532.918 334.76C532.819 335.468 532.918 336.034 532.721 336.741C532.623 337.308 532.328 337.591 532.034 338.015C531.543 339.006 531.346 340.422 531.641 341.554" fill="#1828AA"/>
<path opacity="0.39" d="M540.382 322.446C540.971 321.738 540.775 320.464 540.48 319.473C540.185 318.482 539.694 317.633 539.694 316.501C539.694 315.651 539.891 314.377 539.4 314.094C539.007 313.811 538.614 314.519 538.614 315.227C538.516 315.934 538.614 316.501 538.418 317.208C538.319 317.774 538.025 318.058 537.73 318.482C537.239 319.473 537.043 320.888 537.337 322.021" fill="#1828AA"/>
<path opacity="0.39" d="M528.498 341.979C529.087 341.271 528.891 339.997 528.596 339.006C528.302 338.015 527.811 337.166 527.811 336.034C527.811 335.184 528.007 333.91 527.516 333.627C527.123 333.344 526.73 334.052 526.73 334.76C526.73 335.468 526.73 336.034 526.534 336.741C526.435 337.308 526.141 337.591 525.846 338.015C525.355 339.006 525.159 340.422 525.453 341.554" fill="#1828AA"/>
<path opacity="0.39" d="M544.605 329.947C545.194 329.24 544.998 327.966 544.703 326.975C544.408 325.984 543.917 325.135 543.917 324.002C543.917 323.153 544.114 321.879 543.623 321.596C543.23 321.313 542.837 322.021 542.837 322.729C542.837 323.436 542.837 324.002 542.641 324.71C542.542 325.276 542.248 325.559 541.953 325.984C541.462 326.975 541.266 328.39 541.56 329.523" fill="#1828AA"/>
<path opacity="0.39" d="M550.302 322.587C550.891 321.879 550.695 320.605 550.4 319.615C550.105 318.624 549.614 317.774 549.614 316.642C549.614 315.793 549.811 314.519 549.32 314.236C548.927 313.953 548.534 314.66 548.534 315.368C548.436 316.076 548.534 316.642 548.337 317.35C548.239 317.916 547.945 318.199 547.65 318.624C547.159 319.615 546.962 321.03 547.257 322.162" fill="#1828AA"/>
<path opacity="0.39" d="M552.364 339.997C552.953 339.289 552.757 338.016 552.462 337.025C552.167 336.034 551.676 335.185 551.676 334.052C551.676 333.203 551.873 331.929 551.382 331.646C550.989 331.363 550.596 332.071 550.596 332.778C550.498 333.486 550.596 334.052 550.399 334.76C550.301 335.326 550.007 335.609 549.712 336.034C549.221 337.025 549.024 338.44 549.319 339.573" fill="#1828AA"/>
<path opacity="0.39" d="M556.293 316.217C556.882 315.509 556.686 314.235 556.391 313.244C556.097 312.254 555.605 311.404 555.605 310.272C555.605 309.423 555.802 308.149 555.311 307.866C554.918 307.583 554.525 308.29 554.525 308.998C554.427 309.706 554.525 310.272 554.329 310.98C554.23 311.546 553.936 311.829 553.641 312.254C553.15 313.244 552.954 314.66 553.248 315.792" fill="#1828AA"/>
<path opacity="0.39" d="M575.739 333.487C576.329 332.779 576.132 331.505 575.837 330.514C575.543 329.523 575.052 328.674 575.052 327.542C575.052 326.692 575.248 325.418 574.757 325.135C574.364 324.852 573.971 325.56 573.971 326.268C573.873 326.975 573.971 327.542 573.775 328.249C573.677 328.815 573.382 329.099 573.087 329.523C572.596 330.514 572.4 331.929 572.695 333.062" fill="#1828AA"/>
<path opacity="0.39" d="M581.828 333.344C582.417 332.636 582.221 331.362 581.926 330.371C581.632 329.381 581.141 328.531 581.141 327.399C581.141 326.55 581.337 325.276 580.846 324.993C580.453 324.71 580.06 325.417 580.06 326.125C580.06 326.833 580.06 327.399 579.864 328.107C579.766 328.673 579.471 328.956 579.176 329.381C578.685 330.371 578.489 331.787 578.783 332.919" fill="#1828AA"/>
<path opacity="0.39" d="M587.623 332.777C588.212 332.07 588.015 330.796 587.721 329.805C587.426 328.814 586.935 327.965 586.935 326.833C586.935 325.983 587.131 324.709 586.64 324.426C586.248 324.143 585.855 324.851 585.855 325.559C585.756 326.266 585.855 326.833 585.658 327.54C585.56 328.106 585.265 328.39 584.971 328.814C584.48 329.805 584.283 331.22 584.578 332.353" fill="#1828AA"/>
<path opacity="0.39" d="M584.087 345.659C584.677 344.952 584.48 343.678 584.186 342.687C583.891 341.696 583.4 340.847 583.4 339.714C583.4 338.865 583.596 337.591 583.105 337.308C582.712 337.025 582.32 337.733 582.32 338.44C582.221 339.148 582.32 339.714 582.123 340.422C582.025 340.988 581.73 341.271 581.436 341.696C580.945 342.687 580.748 344.102 581.043 345.235" fill="#1828AA"/>
<path opacity="0.39" d="M591.747 340.421C592.337 339.713 592.14 338.439 591.846 337.449C591.551 336.458 591.06 335.608 591.06 334.476C591.06 333.627 591.256 332.353 590.765 332.07C590.372 331.787 589.98 332.494 589.98 333.202C589.98 333.91 589.98 334.476 589.783 335.184C589.685 335.75 589.39 336.033 589.096 336.458C588.605 337.449 588.408 338.864 588.703 339.996" fill="#1828AA"/>
<path opacity="0.39" d="M597.542 333.062C598.132 332.354 597.935 331.08 597.641 330.089C597.346 329.098 596.855 328.249 596.855 327.117C596.855 326.267 597.051 324.993 596.56 324.71C596.167 324.427 595.775 325.135 595.775 325.843C595.676 326.551 595.775 327.117 595.578 327.824C595.48 328.391 595.185 328.674 594.891 329.098C594.4 330.089 594.203 331.505 594.498 332.637" fill="#1828AA"/>
<path opacity="0.39" d="M603.534 326.549C604.123 325.841 603.926 324.567 603.632 323.577C603.337 322.586 602.846 321.736 602.846 320.604C602.846 319.755 603.043 318.481 602.552 318.198C602.159 317.915 601.766 318.622 601.766 319.33C601.668 320.038 601.766 320.604 601.569 321.312C601.471 321.878 601.176 322.161 600.882 322.586C600.391 323.577 600.194 324.992 600.489 326.124" fill="#1828AA"/>
<path opacity="0.39" d="M630.837 314.943C631.426 314.235 631.23 312.961 630.935 311.97C630.641 310.979 630.149 310.13 630.149 308.998C630.149 308.148 630.346 306.874 629.855 306.591C629.462 306.308 629.069 307.016 629.069 307.724C628.971 308.431 629.069 308.998 628.873 309.705C628.774 310.271 628.48 310.555 628.185 310.979C627.694 311.97 627.498 313.386 627.792 314.518" fill="#1828AA"/>
<path opacity="0.39" d="M587.524 316.076C588.114 315.369 587.917 314.095 587.623 313.104C587.328 312.113 586.837 311.264 586.837 310.131C586.837 309.282 587.033 308.008 586.542 307.725C586.149 307.442 585.757 308.15 585.757 308.857C585.757 309.565 585.757 310.131 585.56 310.839C585.462 311.405 585.167 311.688 584.873 312.113C584.382 313.104 584.185 314.519 584.48 315.652" fill="#1828AA"/>
<path opacity="0.39" d="M625.435 331.786C626.024 331.079 625.828 329.805 625.533 328.814C625.239 327.823 624.748 326.974 624.748 325.841C624.748 324.992 624.944 323.718 624.453 323.435C624.06 323.152 623.667 323.86 623.667 324.567C623.569 325.275 623.667 325.841 623.471 326.549C623.373 327.115 623.078 327.398 622.783 327.823C622.292 328.814 622.096 330.229 622.39 331.362" fill="#1828AA"/>
<path opacity="0.39" d="M631.622 331.786C632.212 331.079 632.015 329.805 631.721 328.814C631.426 327.823 630.935 326.974 630.935 325.841C630.935 324.992 631.131 323.718 630.64 323.435C630.248 323.152 629.855 323.86 629.855 324.567C629.756 325.275 629.855 325.841 629.658 326.549C629.56 327.115 629.265 327.398 628.971 327.823C628.48 328.814 628.283 330.229 628.578 331.362" fill="#1828AA"/>
<path opacity="0.39" d="M637.319 331.221C637.908 330.513 637.712 329.239 637.417 328.248C637.122 327.258 636.631 326.408 636.631 325.276C636.631 324.427 636.828 323.153 636.337 322.87C635.944 322.586 635.551 323.294 635.551 324.002C635.453 324.71 635.551 325.276 635.355 325.984C635.256 326.55 634.962 326.833 634.667 327.258C634.176 328.248 633.98 329.664 634.274 330.796" fill="#1828AA"/>
<path opacity="0.39" d="M633.784 343.96C634.373 343.252 634.177 341.978 633.882 340.988C633.587 339.997 633.096 339.148 633.096 338.015C633.096 337.166 633.293 335.892 632.802 335.609C632.409 335.326 632.016 336.033 632.016 336.741C631.918 337.449 632.016 338.015 631.819 338.723C631.721 339.289 631.427 339.572 631.132 339.997C630.641 340.988 630.444 342.403 630.739 343.535" fill="#1828AA"/>
<path opacity="0.39" d="M641.542 338.864C642.132 338.157 641.935 336.883 641.641 335.892C641.346 334.901 640.855 334.052 640.855 332.919C640.855 332.07 641.051 330.796 640.56 330.513C640.167 330.23 639.775 330.938 639.775 331.646C639.775 332.353 639.775 332.919 639.578 333.627C639.48 334.193 639.185 334.476 638.891 334.901C638.4 335.892 638.203 337.307 638.498 338.44" fill="#1828AA"/>
<path opacity="0.39" d="M647.239 331.363C647.828 330.656 647.632 329.382 647.337 328.391C647.042 327.4 646.551 326.551 646.551 325.418C646.551 324.569 646.748 323.295 646.257 323.012C645.864 322.729 645.471 323.437 645.471 324.145C645.373 324.852 645.471 325.418 645.274 326.126C645.176 326.692 644.882 326.975 644.587 327.4C644.096 328.391 643.899 329.806 644.194 330.939" fill="#1828AA"/>
<path opacity="0.39" d="M653.23 324.993C653.819 324.286 653.623 323.012 653.328 322.021C653.034 321.03 652.542 320.181 652.542 319.048C652.542 318.199 652.739 316.925 652.248 316.642C651.855 316.359 651.462 317.067 651.462 317.774C651.364 318.482 651.462 319.048 651.266 319.756C651.167 320.322 650.873 320.605 650.578 321.03C650.087 322.021 649.891 323.436 650.185 324.569" fill="#1828AA"/>
<path opacity="0.39" d="M637.221 314.377C637.81 313.669 637.614 312.395 637.319 311.405C637.024 310.414 636.533 309.564 636.533 308.432C636.533 307.583 636.73 306.309 636.239 306.026C635.846 305.743 635.453 306.45 635.453 307.158C635.355 307.866 635.453 308.432 635.256 309.14C635.158 309.706 634.864 309.989 634.569 310.414C634.078 311.405 633.881 312.82 634.176 313.952" fill="#1828AA"/>
<path opacity="0.39" d="M681.024 329.381C681.613 328.673 681.417 327.399 681.122 326.409C680.827 325.418 680.336 324.568 680.336 323.436C680.336 322.587 680.533 321.313 680.042 321.03C679.649 320.747 679.256 321.454 679.256 322.162C679.158 322.87 679.256 323.436 679.06 324.144C678.961 324.71 678.667 324.993 678.372 325.418C677.881 326.409 677.685 327.824 677.979 328.956" fill="#1828AA"/>
<path opacity="0.39" d="M687.212 329.239C687.801 328.532 687.605 327.258 687.31 326.267C687.015 325.276 686.524 324.427 686.524 323.294C686.524 322.445 686.721 321.171 686.23 320.888C685.837 320.605 685.444 321.313 685.444 322.021C685.346 322.728 685.444 323.294 685.248 324.002C685.149 324.568 684.855 324.851 684.56 325.276C684.069 326.267 683.873 327.682 684.167 328.815" fill="#1828AA"/>
<path opacity="0.39" d="M689.373 341.554C689.962 340.846 689.765 339.572 689.471 338.581C689.176 337.591 688.685 336.741 688.685 335.609C688.685 334.76 688.881 333.486 688.39 333.203C687.998 332.919 687.605 333.627 687.605 334.335C687.506 335.043 687.605 335.609 687.408 336.317C687.31 336.883 687.015 337.166 686.721 337.591C686.23 338.581 686.033 339.997 686.328 341.129" fill="#1828AA"/>
<path opacity="0.39" d="M131.911 339.148C131.321 338.44 131.42 337.166 131.812 336.175C132.205 335.184 132.696 334.335 132.696 333.203C132.696 332.353 132.5 331.079 133.089 330.796C133.482 330.513 133.875 331.221 133.973 331.929C134.071 332.636 133.973 333.203 134.169 333.91C134.366 334.477 134.661 334.76 134.857 335.184C135.446 336.175 135.643 337.591 135.348 338.723" fill="#1828AA"/>
<path d="M-1.75879 393.785C-1.75879 393.785 154.696 366.184 366.347 363.07C484.204 361.371 692.908 366.467 735.631 370.713L735.14 707.737H-3.13379L-1.75879 393.785Z" fill="#027538"/>
<path opacity="0.42" d="M68.0708 384.442C138.687 369.438 357.213 306.733 357.409 306.591C357.605 306.308 357.9 305.459 357.704 305.6C357.213 306.167 374.989 292.578 386.382 275.309C397.48 258.465 402.195 238.082 402.195 238.082C415.257 236.525 428.221 234.544 441.186 232.421C461.123 229.023 481.65 226.193 501.292 219.398C517.007 214.019 552.757 202.696 587.524 184.011C645.372 152.73 702.533 111.398 735.238 70.4906C752.229 49.2585 746.827 122.297 735.238 197.742C730.72 227.325 745.256 271.771 741.72 298.523C735.238 346.791 745.943 368.872 737.202 377.223C737.988 364.909 734.845 686.221 733.372 708.161C728.363 782.048 630.444 708.161 578.98 708.161C516.614 708.161 454.248 708.161 391.882 708.161C349.061 708.161 305.945 711.841 263.615 711.275C214.901 710.709 169.428 715.946 121.106 700.659C207.927 683.956 299.168 662.158 380.293 612.758C393.945 604.407 407.4 595.631 420.462 585.439C440.203 570.011 461.025 551.185 473.891 524.008C487.641 494.991 486.364 456.914 467.016 433.559C457.98 422.66 446.98 416.007 435.882 410.487C384.516 385.433 329.516 383.451 275.4 381.753C270.097 381.611 131.812 379.771 68.0708 384.442Z" fill="#007282"/>
<path opacity="0.3" d="M342.186 363.635L-2.05371 411.902L-1.36621 456.207L342.186 363.635Z" fill="#28AD73"/>
<path opacity="0.3" d="M-1.36572 503.625L342.187 363.635L-0.0889416 570.01L-1.36572 503.625Z" fill="#28AD73"/>
<path opacity="0.3" d="M0.500126 623.94L342.186 363.635L10.4197 707.736H-3.13379L0.500126 623.94Z" fill="#28AD73"/>
<path opacity="0.3" d="M97.3384 707.736L342.186 363.635L174.535 707.736H97.3384Z" fill="#28AD73"/>
<path opacity="0.3" d="M342.186 363.635L239.749 707.736H311.838L342.186 363.635Z" fill="#28AD73"/>
<path opacity="0.3" d="M342.186 363.635L377.347 707.736H451.203L342.186 363.635Z" fill="#28AD73"/>
<path opacity="0.3" d="M342.186 363.635L526.239 707.736H611.98L342.186 363.635Z" fill="#28AD73"/>
<path opacity="0.3" d="M342.186 363.635L709.113 707.736H735.14V621.392L342.186 363.635Z" fill="#28AD73"/>
<path opacity="0.3" d="M342.186 363.635L736.024 550.194V478.996L342.186 363.635Z" fill="#28AD73"/>
<path opacity="0.3" d="M342.186 363.635L735.14 427.048L735.238 382.602L342.186 363.635Z" fill="#28AD73"/>
<path opacity="0.5" d="M642.426 330.229L660.203 393.784L640.167 395.341L642.426 330.229ZM642.426 330.229L730.426 322.444L731.997 411.761L756.256 408.647L730.426 322.444" stroke="white" stroke-width="2" stroke-miterlimit="10" stroke-linecap="round" stroke-linejoin="round"/>
<path opacity="0.5" d="M84.8657 341.554L66.0086 405.675L88.5978 406.524L84.8657 341.554ZM84.8657 341.554L1.28561 339.147L6.19631 422.802H-27L1.28561 339.147" stroke="white" stroke-width="2" stroke-miterlimit="10" stroke-linecap="round" stroke-linejoin="round"/>
<path opacity="0.3" d="M6.58936 422.801L70.1338 427.048L144.58 409.921L90.0712 406.523L6.58936 422.801Z" stroke="white" stroke-miterlimit="10" stroke-linecap="round" stroke-linejoin="round"/>
<path opacity="0.3" d="M648.712 395.341L589.391 403.409L695.855 421.81L760.185 408.646L648.712 395.341Z" stroke="white" stroke-miterlimit="10" stroke-linecap="round" stroke-linejoin="round"/>
<path opacity="0.5" d="M-0.0888672 590.675C30.3575 596.762 61.0002 601.575 91.643 605.679C122.286 609.926 152.928 613.323 183.669 616.154C214.41 618.843 245.053 620.966 275.892 622.382C291.312 623.09 306.633 623.514 322.053 623.939L345.133 624.222C348.963 624.222 352.794 624.222 356.624 624.222H368.115H379.606L391.097 623.939C398.758 623.797 406.517 623.656 414.178 623.373L437.258 622.523C441.088 622.382 444.918 622.24 448.749 621.957L460.24 621.25L471.731 620.542C475.561 620.4 479.392 619.976 483.222 619.693L506.204 617.852L529.186 615.446C533.016 615.021 536.847 614.738 540.677 614.314L552.168 612.898L563.659 611.483C567.489 611.058 571.32 610.634 575.15 609.926L598.132 606.529L603.829 605.679L609.525 604.689L621.016 602.707C628.677 601.291 636.337 600.159 643.9 598.46L666.784 593.789L669.632 593.223L672.48 592.516L678.177 591.242L689.569 588.552L700.962 585.863C704.793 585.013 708.525 583.881 712.355 582.89L735.042 576.945L712.453 583.598C708.721 584.73 704.891 585.863 701.159 586.854L689.766 589.685L678.373 592.516L672.677 593.931L669.828 594.639L666.98 595.205L644.195 600.301C613.748 606.67 583.105 612.049 552.463 616.012C537.141 618.277 521.82 619.693 506.4 621.391L483.32 623.373C479.49 623.656 475.659 624.081 471.829 624.364L460.338 625.071L448.847 625.779C445.017 626.062 441.186 626.204 437.356 626.345L414.276 627.336C406.615 627.619 398.856 627.761 391.195 627.902L379.606 628.185H368.017H356.428C352.597 628.185 348.767 628.185 344.838 628.044L321.758 627.761C306.339 627.336 291.017 626.911 275.598 626.062C244.857 624.505 214.116 622.382 183.375 619.268C122.089 613.181 60.7056 604.405 -0.0888672 590.675Z" fill="white"/>
<path opacity="0.5" d="M-10.5981 406.523L239.749 372.835L484.498 369.862L735.238 382.602" stroke="white" stroke-width="0.75" stroke-miterlimit="10" stroke-linecap="round" stroke-linejoin="round"/>
<path opacity="0.4" d="M342.972 456.065C380.778 456.065 411.427 446.179 411.427 433.984C411.427 421.789 380.778 411.902 342.972 411.902C305.165 411.902 274.517 421.789 274.517 433.984C274.517 446.179 305.165 456.065 342.972 456.065Z" stroke="white" stroke-width="0.75" stroke-miterlimit="10" stroke-linecap="round" stroke-linejoin="round"/>
<path opacity="0.3" d="M342.677 432.144C346.745 432.144 350.043 431.003 350.043 429.596C350.043 428.189 346.745 427.048 342.677 427.048C338.609 427.048 335.311 428.189 335.311 429.596C335.311 431.003 338.609 432.144 342.677 432.144Z" fill="white"/>
<path opacity="0.5" d="M343.267 626.204L342.187 369.862L345.231 626.204C345.231 627.054 344.838 627.62 344.249 627.62C343.758 627.62 343.267 627.054 343.267 626.204Z" fill="white"/>
<path opacity="0.3" d="M90.0711 406.523L144.58 396.474L247.999 401.994L67.1873 475.74L-10.5981 466.823" stroke="white" stroke-miterlimit="10" stroke-linecap="round" stroke-linejoin="round"/>
<path opacity="0.3" d="M640.168 395.341L594.4 390.812L462.008 398.738L707.543 470.644L811.257 456.206" stroke="white" stroke-miterlimit="10" stroke-linecap="round" stroke-linejoin="round"/>
<rect x="-40" y="338" width="764" height="401" fill="url(#paint1_linear)"/>
</g>
<defs>
<linearGradient id="paint0_linear" x1="363.289" y1="231.087" x2="364" y2="-2" gradientUnits="userSpaceOnUse">
<stop stop-color="#00B8F6"/>
<stop offset="0.427083" stop-color="#00AEE4"/>
<stop offset="1" stop-color="#005B9C"/>
</linearGradient>
<linearGradient id="paint1_linear" x1="464.5" y1="688" x2="464.5" y2="338" gradientUnits="userSpaceOnUse">
<stop offset="0.0421293" stop-color="#00642F" stop-opacity="0.9"/>
<stop offset="1" stop-color="#5EC558" stop-opacity="0"/>
</linearGradient>
<clipPath id="clip0">
<rect width="687" height="679" rx="8" fill="white"/>
</clipPath>
</defs>
</svg>
