<svg width="191" height="532" viewBox="0 0 191 532" fill="none" xmlns="http://www.w3.org/2000/svg">
<path d="M145.616 351.287C157.631 269.053 138.247 227.86 138.247 227.86L104.607 224.516L98.0386 281.821C98.0386 281.821 98.0386 259.02 98.0386 281.821C98.0386 304.622 111.815 356.455 114.218 358.583C116.621 360.711 111.014 391.264 111.014 391.264C111.335 394.152 111.495 396.888 111.175 399.776C110.854 402.968 110.053 406.16 109.412 409.352C104.607 435.953 112.136 463.01 112.136 489.762C112.136 492.65 111.815 495.387 111.014 498.275C110.534 500.251 110.374 501.923 110.694 503.899C111.014 506.483 111.175 508.915 110.694 511.651C110.213 514.843 109.412 518.035 108.932 521.227C108.611 523.659 108.131 527.915 110.534 529.739C111.655 530.651 113.257 530.803 114.699 530.955C118.063 531.259 121.427 531.259 124.791 531.259C128.315 531.259 132 531.259 135.524 531.107C137.927 531.107 140.65 531.107 142.893 530.347C144.495 529.891 145.456 528.827 145.296 527.003C144.976 524.875 143.374 523.507 141.291 522.899C139.529 522.291 137.607 522.139 136.005 521.075C134.723 520.163 133.922 518.947 133.281 517.731C132.801 516.515 132.32 515.299 131.679 514.083C131.039 513.019 130.238 511.955 129.437 510.891C128.636 509.827 127.835 508.611 127.514 507.395C127.034 505.723 127.354 503.899 127.354 502.227C127.354 499.795 126.713 497.515 126.713 495.234C126.713 492.954 127.194 490.522 127.675 488.242C128.476 484.594 129.116 481.098 129.917 477.45C131.359 471.066 132.801 464.682 134.563 458.298C136.485 451.153 138.408 444.009 140.01 436.713C141.451 430.633 142.413 424.401 142.413 418.017C142.573 411.328 142.092 404.792 141.451 398.256C141.131 394.912 140.971 391.568 140.65 388.224C147.859 373.935 145.616 351.287 145.616 351.287Z" fill="#EDC4B0"/>
<path d="M79.9374 354.022C81.0587 349.158 82.3403 344.142 83.3014 339.278C88.1073 316.933 93.8743 296.869 96.5976 274.22C97.719 264.644 95.7966 252.179 96.7578 242.603C97.5588 235.155 101.564 226.339 93.5539 221.627C90.6704 219.955 87.3063 219.195 84.1024 218.587C76.7335 217.218 69.0441 216.61 61.8353 218.435C42.4518 223.451 43.0925 244.275 40.5294 260.084C37.9663 275.74 36.6847 291.7 37.1653 307.509C37.4857 317.845 38.2867 328.333 40.209 338.518C40.5294 340.494 43.4129 347.03 42.612 349.006C38.7673 358.886 43.5731 389.135 43.5731 389.135C42.7722 396.127 41.811 403.119 41.01 410.263C40.3692 416.8 40.209 423.336 40.8498 429.872C41.3304 436.104 42.2916 442.184 43.2527 448.264C44.3741 456.929 45.6557 465.441 46.777 474.105C47.578 479.881 49.0197 485.809 49.3401 491.585C49.5003 494.474 49.0198 497.21 48.8596 500.098C48.6994 501.922 48.8596 503.898 48.0586 505.57C47.0974 507.546 45.4955 509.218 44.3741 511.194C43.4129 513.018 42.7722 515.146 41.4906 516.818C39.4081 519.706 35.4032 520.466 32.1993 521.226C30.1168 521.834 27.2333 522.442 26.7527 524.874C26.2721 527.306 28.0342 529.435 30.4371 530.195C32.5197 530.803 34.7624 530.803 36.8449 530.803C40.8498 530.955 44.8547 530.803 48.8596 530.803C51.9033 530.803 55.1072 530.955 58.1509 530.803C59.913 530.803 61.8353 530.499 63.5975 529.738C65.5198 528.826 66.9616 526.85 67.282 524.874C67.4422 523.658 67.4422 522.594 67.282 521.378C66.6412 518.49 65.68 515.754 65.5198 512.866C65.0392 508.154 66.8014 503.442 65.68 498.73C61.9955 483.377 69.2043 466.809 73.049 452.064C75.4519 443.096 77.214 433.672 76.2529 424.4C75.4519 416.04 71.6072 409.655 72.0878 400.687C72.248 397.495 73.049 394.303 73.8499 391.263C74.8111 384.575 75.9325 378.039 76.8937 371.35C77.3742 365.574 78.6558 359.798 79.9374 354.022Z" fill="#EDC4B0"/>
<path d="M151.864 171.159C155.068 156.111 156.991 140.15 158.272 125.71C158.432 123.582 158.593 121.302 157.792 119.326C156.35 116.286 152.826 114.766 149.301 114.766C145.937 114.766 137.767 115.83 134.403 116.894C104.927 126.47 68.8834 131.486 37.8056 131.638C36.6842 153.375 50.461 172.983 51.1018 194.264C51.4222 206.424 47.2571 218.432 51.5824 230.593C54.4659 238.649 59.5921 239.257 68.563 241.081C82.9806 244.121 98.0389 243.817 112.296 240.169C118.544 238.497 130.879 238.953 135.524 234.089C139.369 229.985 138.568 217.368 138.408 212.048C138.408 205.208 138.248 200.04 140.811 193.2C143.374 186.055 150.262 178.607 151.864 171.159Z" fill="#EDC4B0"/>
<path d="M155.389 138.328C154.588 142.585 153.947 146.689 153.947 151.097C153.947 155.505 154.748 159.913 155.389 164.169C156.671 172.681 156.991 181.193 159.234 189.554C160.515 193.962 161.957 198.37 162.598 202.93C163.239 207.186 163.078 211.442 163.559 215.546C164.04 220.106 164.2 224.667 164.36 229.227C164.52 233.483 165.321 237.587 166.282 241.691C167.243 246.251 168.525 250.659 169.646 255.219C170.608 258.867 172.049 262.82 172.209 266.62C172.69 276.5 161.316 284.252 157.952 293.372C157.472 294.588 157.151 295.956 157.472 297.172C157.792 298.388 159.073 299.604 160.355 299.452C161.957 299.3 162.598 297.628 163.239 296.26C165.001 292.916 168.044 290.332 171.729 289.116C172.209 293.98 168.525 298.388 165.481 302.341C159.874 309.333 156.991 321.797 170.768 317.389C173.331 316.477 175.894 315.261 177.976 313.589C183.423 309.181 184.705 302.797 185.025 296.412C185.345 291.852 185.345 287.292 185.506 282.732C185.826 278.476 186.307 274.372 186.467 270.116C186.627 260.387 187.909 250.963 189.03 241.387C190.151 233.027 190.792 224.363 190.311 215.85C189.991 211.442 189.35 207.034 188.229 202.626C184.865 187.882 189.03 171.921 185.506 156.721C183.103 146.841 178.297 137.112 177.015 127.08C176.054 119.024 173.171 113.856 166.282 108.232C160.675 103.672 153.627 103.064 147.86 98.8074C142.573 94.8553 137.127 90.5992 130.879 87.8631C125.593 85.5831 119.345 86.7991 117.743 80.7189C117.263 79.0469 117.263 77.3749 117.102 75.7028C116.782 73.4228 116.462 71.2947 116.141 69.0146L80.5 66C80.6602 68.2801 79.6168 77.8309 79.6168 80.1109C79.6168 81.023 79.6168 82.087 79.2964 82.999C77.3741 88.4711 69.5246 87.5591 65.0391 89.3832C59.9129 91.3592 55.4274 94.7033 50.4614 97.1354C44.6944 100.023 37.9662 99.7194 32.1992 102.303C25.1506 105.648 19.704 111.88 16.5001 118.568C13.6166 124.952 13.2962 131.792 10.5729 138.176C7.36896 145.929 4.96604 154.289 4.00487 162.649C2.56312 174.809 4.48546 186.97 3.0437 199.13C1.92234 209.314 0.160195 219.042 0 229.683C0 234.091 0.480585 238.347 0.961169 242.603C1.60195 247.315 2.08253 252.027 2.24273 256.739C2.40292 261.148 1.60195 265.556 1.44175 269.964C1.28156 272.852 2.24273 275.588 2.24273 278.476C2.24273 282.884 0.160195 287.14 0.160195 291.396C0.160195 296.564 3.2039 303.405 6.0874 307.813C9.61169 313.437 15.5389 318.149 22.4273 318.757C23.5486 314.045 20.3447 309.333 17.7816 305.229C15.0583 301.125 12.6554 295.956 14.8981 291.548C16.8205 291.548 18.4224 293.068 19.2234 294.892C20.0244 296.564 20.1846 298.54 21.1457 300.212C22.1069 301.885 23.869 303.253 25.7914 302.797C29.4759 301.885 19.704 278.324 17.9418 276.044C16.6603 274.372 16.0195 272.396 15.6991 270.268C14.7379 261.756 18.102 252.939 20.6651 245.035C22.1069 240.627 23.869 236.219 25.1506 231.659C26.4321 227.403 26.5923 223.299 26.5923 219.042C26.5923 214.634 26.7525 210.378 27.7137 205.97C28.6749 201.258 30.2768 196.698 31.3982 192.138C33.8011 182.258 36.204 172.529 38.9273 162.649C39.8885 158.849 40.8497 155.049 41.1701 151.249C41.3303 147.449 40.8497 143.801 40.0487 140" fill="#EDC4B0"/>
<path d="M117.582 81.3264C111.815 85.2785 104.446 86.9505 97.3978 85.7345C90.3492 84.5185 83.8447 80.1241 80 74.5C80 73.5 80.5 68.5 80.5 66C89.6455 59.5241 104.632 60.8567 116.781 59.5898C116.141 67.19 116.781 74.5 117.582 81.3264Z" fill="#CDA995"/>
<path fill-rule="evenodd" clip-rule="evenodd" d="M134.65 229.692L48.5375 229.837L48.4442 230.378L47.0968 229.378C47.0968 229.378 34.7618 271.179 37.0045 302.188L90.9902 305.684L94.0712 290.071C95.121 290.557 96.7452 290.92 99.1388 290.561L100.763 305.684L149.622 302.644C149.622 302.644 150.904 247.163 138.409 227.858L134.65 229.692Z" fill="#CACACA"/>
</svg>
