<svg width="116" height="16" viewBox="0 0 116 16" fill="none" xmlns="http://www.w3.org/2000/svg">
<path d="M10.7512 7.27263C10.7512 7.27263 12.3356 6.60131 12.3356 4.1398C12.3356 2.46151 11.5434 0 7.69561 0C4.97951 0 2.26342 0 0.905369 0C0.113174 0 0 0.559434 0 0.895094V14.769C0 15.1047 0.113174 15.5522 0.905369 15.6641C3.16878 15.6641 5.43219 15.6641 8.14829 15.6641C12.1093 15.6641 13.241 13.4264 13.241 11.1887C13.241 8.50338 11.4302 7.27263 10.7512 7.27263ZM3.8478 3.3566C3.8478 3.3566 6.33756 3.3566 7.12975 3.3566C7.92195 3.3566 8.4878 3.80414 8.4878 4.69924C8.4878 5.59433 7.92195 6.04188 7.01658 6.04188C6.33756 6.04188 3.73463 6.04188 3.73463 6.04188L3.8478 3.3566ZM8.03512 12.1956H3.8478V9.06281H7.92195C8.71414 9.06281 9.50634 9.51036 9.50634 10.6292C9.50634 11.86 8.71414 12.1956 8.03512 12.1956Z" fill="#96C83C"/>
<path d="M42.7786 2.57339V0.895094C42.7786 0.671321 42.6654 0 41.8732 0H30.443C29.6508 0 29.5376 0.671321 29.5376 0.895094V2.46151C29.5376 2.68528 29.6508 3.3566 30.443 3.3566H34.2908V14.6571C34.2908 14.8809 34.4039 15.5522 35.1961 15.5522H37.2332C37.9122 15.5522 38.1386 14.9928 38.1386 14.769V3.3566H41.9864C42.6654 3.3566 42.7786 2.79717 42.7786 2.57339Z" fill="#96C83C"/>
<path d="M27.5003 14.8804V13.0902C27.5003 12.7545 27.2739 12.307 26.5949 12.307H19.352V9.39791H25.2369C25.6895 9.28603 25.9159 8.95037 25.9159 8.72659V6.82452C25.9159 6.48886 25.6895 6.04132 25.0105 6.04132H19.2388V3.46793H26.4817C27.1608 3.46793 27.2739 3.02038 27.2739 2.68472V0.894535C27.2739 0.558875 27.0476 0.111328 26.3686 0.111328H16.1832C15.5042 0.111328 15.2778 0.558875 15.2778 0.894535V14.7685C15.2778 14.7685 15.2778 15.6636 16.1832 15.6636H26.3686C27.2739 15.6636 27.5003 15.1041 27.5003 14.8804Z" fill="#96C83C"/>
<path d="M58.0563 0.111328H56.0192C55.1138 0.111328 55.1139 0.894535 55.1139 1.00642V9.17414C55.1139 12.1951 52.2846 12.307 51.8319 12.307C51.3792 12.307 48.55 12.307 48.55 9.17414V0.894535C48.55 0.670762 48.3236 0.111328 47.6446 0.111328H45.6075C44.9285 0.111328 44.7021 0.558875 44.7021 0.894535V9.95735C44.8153 12.4189 46.3997 15.9992 51.7187 15.9992C57.0378 15.9992 58.7353 12.307 58.7353 9.84546V1.00642C58.9617 0.670762 58.8485 0.111328 58.0563 0.111328Z" fill="white"/>
<path d="M75.9379 14.7685V0.894535C75.9379 0.558875 75.7115 0.111328 75.0325 0.111328H72.9954C72.2032 0.111328 72.0901 0.670762 72.0901 0.894535V9.84546L65.2998 0.446989C65.1867 0.335103 64.9603 0.223215 64.6208 0.223215H62.2442C61.452 0.223215 61.3389 0.894534 61.3389 1.11831V14.8804C61.3389 14.9922 61.452 15.7754 62.2442 15.7754H64.2813C64.8472 15.7754 65.0735 15.216 65.0735 14.9922V6.1532L71.8637 15.5517C71.9769 15.6636 72.2032 15.8873 72.5428 15.8873C72.7691 15.8873 75.0325 15.8873 75.0325 15.8873C75.8247 15.6636 75.9379 14.9922 75.9379 14.7685Z" fill="white"/>
<path d="M90.989 14.7685V13.2021C90.989 12.9783 90.989 12.307 90.1968 12.307H82.5012V1.00642C82.5012 0.670762 82.2749 0.111328 81.5959 0.111328H79.672C78.8798 0.111328 78.7666 0.670762 78.7666 1.00642V14.8804C78.7666 15.1041 78.8798 15.7755 79.672 15.7755H90.1968C90.8759 15.5517 90.989 14.8804 90.989 14.7685Z" fill="white"/>
<path d="M96.7609 14.8804V1.00642C96.7609 0.670762 96.5346 0.111328 95.8555 0.111328H93.8185C93.0263 0.111328 92.9131 0.670762 92.9131 0.894535V14.7685C92.9131 14.9922 93.0263 15.5517 93.8185 15.5517H95.8555C96.5346 15.6636 96.7609 15.1041 96.7609 14.8804Z" fill="white"/>
<path d="M109.21 11.9719L112.265 6.71319C112.265 6.71319 112.265 14.5453 112.265 14.6571C112.265 14.769 112.265 15.5522 113.171 15.5522H115.208C116 15.5522 116 14.8809 116 14.769V0.783207C116 0.559434 115.773 0 115.094 0H112.492C112.152 0 112.039 0.111888 111.926 0.335661L107.965 7.38452L104.004 0.335661C103.891 0.111888 103.664 0 103.438 0H100.722C99.9296 0 99.8164 0.559434 99.8164 0.783207V14.6571C99.8164 14.8809 99.9296 15.4403 100.722 15.4403H102.759C103.438 15.4403 103.664 14.9928 103.664 14.6571V6.48942L106.833 11.7481C106.946 11.9719 107.173 12.0837 107.512 12.0837H108.644C108.87 12.3075 109.096 12.1956 109.21 11.9719Z" fill="white"/>
</svg>
