<svg width="141" height="157" viewBox="0 0 141 157" fill="none" xmlns="http://www.w3.org/2000/svg">
<path d="M140.14 61.0956C140.055 62.6085 140.055 64.2379 139.97 65.7897C139.886 67.6906 139.631 68.0397 137.513 68.2337C133.955 68.544 130.821 68.8156 127.474 69.7079C125.314 70.2898 122.222 71.6864 120.104 71.182C119.553 71.0269 117.322 72.1167 116.941 71.6512C115.501 69.8666 117.266 65.6345 116.249 63.9275C115.529 66.1776 114.767 68.3113 114.047 70.4838C112.564 74.9839 111.251 79.4064 110.785 84.2557C110.743 84.7988 110.7 85.3031 110.658 85.8462C110.404 89.9972 111.632 94.4973 112.522 98.5707C113.284 102.14 113.919 105.631 114.512 109.2C114.512 109.317 114.555 109.394 114.555 109.511C115.783 116.92 115.487 124.446 116.376 131.856C116.842 135.658 117.096 139.343 118.071 143.106C118.537 144.968 118.918 146.792 119.257 148.654C119.384 149.546 120.697 152.417 120.443 153.076C120.4 153.154 120.57 153.348 120.612 153.426C117.689 153.076 113.369 154.163 110.446 154.706C105.914 155.598 101.974 156.025 97.2724 156.219C92.1893 156.413 87.1062 156.025 81.9808 156.025C78.5074 156.025 75.2457 156.529 72.0688 156.219C68.8919 156.568 65.6726 156.025 62.1568 156.025C57.0314 156.025 51.9059 156.413 46.8652 156.219C42.1634 156.025 38.224 155.598 33.6916 154.706C30.8112 154.124 26.4482 153.038 23.5254 153.426C23.5678 153.348 23.7372 153.154 23.6949 153.076C23.4407 152.417 24.7115 149.546 24.8809 148.654C25.2198 146.792 25.601 144.968 26.067 143.106C26.9989 139.305 27.2954 135.658 27.7613 131.856C28.6509 124.485 28.3543 116.92 29.5828 109.511C29.6251 109.278 29.6675 109.006 29.7098 108.774C30.3029 105.398 30.8959 102.023 31.6583 98.6095C32.5479 94.5749 33.7339 90.036 33.5221 85.885C33.1833 80.415 31.7854 75.527 30.1334 70.5225C29.8369 69.5915 29.498 68.6992 29.2015 67.7294C28.7779 66.488 28.3543 65.2077 27.9308 63.9275C27.253 65.1302 27.0412 66.8759 26.4906 68.4277C17.0445 69.8242 9.25045 60.3585 3.99794 53.9187C3.99794 52.9488 -2.22897 52.5784 2.31251 50.6546C2.31251 44.0596 5.18399 38.5562 5.81938 32.2328C6.45476 25.9869 9.92819 19.7798 15.5196 15.9004C16.4091 15.2797 17.2987 14.6202 18.1458 13.9607C18.4424 13.728 18.7389 13.534 19.0354 13.34C20.5603 12.2538 22.1699 11.2451 24.0761 10.6244C28.1849 9.30543 32.3361 8.10282 36.4025 6.51226C40.0031 5.11567 43.7307 4.06823 47.2041 2.51646C48.3901 1.97335 49.8303 1.43023 51.2282 0.731934C53.4309 13.8831 72.5348 17.0643 83.7599 11.3615C88.377 9.07267 91.0456 5.15446 93.5025 1.00349C94.7309 1.5854 95.9593 2.05093 96.9759 2.51646C100.449 4.02943 104.177 5.11567 107.777 6.51226C111.844 8.10282 115.995 9.30543 120.104 10.6244C121.671 11.1288 123.069 11.9046 124.382 12.7969C124.721 13.0297 125.06 13.2624 125.399 13.4952C126.5 14.2711 127.559 15.1246 128.703 15.9004C134.294 19.7411 137.768 25.9869 138.403 32.2328C139.038 38.5562 140.224 44.3753 140.224 50.9703C140.182 54.3454 140.267 57.7593 140.14 61.0956Z" fill="#F4F4F4"/>
</svg>
