<svg width="188" height="213" viewBox="0 0 188 213" fill="none" xmlns="http://www.w3.org/2000/svg">
<path d="M2.0441 73.4189C2.0441 76.6212 0.301766 79.2134 0.414557 82.364C-0.50027 82.0581 -1.21538 89.3213 23.3228 97.2949C26.9885 98.2763 32.6845 101.065 35.0532 98.0697C35.6171 97.3466 36.0119 96.4685 36.3503 95.5905C23.8304 97.4499 9.03718 81.9928 2.0441 73.4189Z" fill="url(#paint0_linear)"/>
<path d="M186.665 86.1989C186.552 88.2132 186.552 90.3825 186.439 92.4485C186.327 94.9794 185.988 95.4442 183.168 95.7025C178.431 96.1156 174.258 96.4772 169.803 97.6651C166.926 98.4399 162.81 100.299 159.99 99.6278C159.257 99.4212 156.286 100.872 155.779 100.252C153.861 97.8765 156.211 92.2419 154.858 89.9693C153.899 92.965 152.884 95.8058 151.925 98.6981C149.951 104.689 148.203 110.578 147.583 117.034C147.526 117.757 147.47 118.428 147.413 119.151C147.075 124.678 148.711 130.669 149.895 136.092C150.91 140.844 151.756 145.493 152.545 150.245C152.545 150.399 152.602 150.503 152.602 150.658C154.237 160.523 153.843 170.543 155.027 180.408C155.647 185.47 155.986 190.376 157.283 195.386C157.903 197.865 158.411 200.293 158.862 202.772C159.031 203.96 160.779 207.782 160.441 208.66C160.384 208.764 160.61 209.022 160.666 209.125C156.775 208.66 151.023 210.106 147.131 210.83C141.097 212.018 135.852 212.586 129.592 212.844C122.825 213.102 116.057 212.586 109.233 212.586C104.609 212.586 100.267 213.257 96.0368 212.844C91.8071 213.309 87.5211 212.586 82.8402 212.586C76.0163 212.586 69.1924 213.102 62.4813 212.844C56.2213 212.586 50.9765 212.018 44.9422 210.83C41.1073 210.055 35.2985 208.609 31.4072 209.125C31.4636 209.022 31.6892 208.764 31.6328 208.66C31.2944 207.782 32.9863 203.96 33.2118 202.772C33.663 200.293 34.1706 197.865 34.7909 195.386C36.0316 190.325 36.4264 185.47 37.0468 180.408C38.2311 170.594 37.8363 160.523 39.4718 150.658C39.5282 150.348 39.5846 149.986 39.641 149.676C40.4305 145.183 41.2201 140.689 42.2352 136.144C43.4195 130.773 44.9986 124.73 44.7166 119.203C44.2654 111.92 42.4044 105.413 40.2049 98.7498C39.8102 97.5102 39.359 96.3223 38.9642 95.031C38.4003 93.3782 37.8363 91.6738 37.2723 89.9693C36.37 91.5705 36.088 93.8947 35.3549 95.9607C22.7786 97.8201 12.4018 85.2176 5.40869 76.6437C5.40869 75.3525 -2.88169 74.8594 3.16474 72.298C3.16474 63.5176 6.98777 56.1905 7.83371 47.7716C8.67965 39.456 13.3041 31.192 20.7484 26.0271C21.9327 25.2007 23.117 24.3226 24.2449 23.4446C24.6397 23.1347 25.0344 22.8764 25.4292 22.6182C27.4595 21.172 29.6025 19.8291 32.1403 19.0027C37.6107 17.2466 43.1375 15.6455 48.5515 13.5278C53.3452 11.6684 58.308 10.2739 62.9324 8.20792C64.5115 7.48482 66.429 6.76173 68.2901 5.83203C71.2226 23.3413 96.6572 27.5765 111.602 19.984C117.749 16.9367 121.302 11.7201 124.573 6.19358C126.209 6.96832 127.844 7.58812 129.198 8.20792C133.822 10.2223 138.785 11.6684 143.579 13.5278C148.993 15.6455 154.519 17.2466 159.99 19.0027C162.076 19.6741 163.937 20.7071 165.686 21.8951C166.137 22.205 166.588 22.5149 167.039 22.8248C168.505 23.8578 169.915 24.9941 171.438 26.0271C178.882 31.1404 183.507 39.456 184.353 47.7716C185.199 56.1905 186.778 63.9379 186.778 72.7184C186.721 77.2119 186.834 81.757 186.665 86.1989Z" fill="url(#paint1_linear)"/>
<path d="M38.0982 90.0619C37.0831 85.5167 34.4889 81.1265 30.9359 77.6143C27.8342 74.567 22.5893 71.0031 22.0254 66.6129C25.5219 66.1997 27.2138 71.7262 29.9208 71.0548C32.797 70.3317 30.4848 63.3073 29.9208 61.5512C28.7929 58.0391 27.6086 54.5269 26.1423 51.0664C25.0144 48.3289 23.2097 45.4882 22.8149 42.6475C28.2289 48.6905 31.3871 56.3346 33.5301 63.7722C35.786 71.7779 40.2976 81.8496 38.0982 90.0619Z" fill="#6BA92A"/>
<path d="M162.676 81.2303C161.661 84.4326 162.902 87.2216 162.62 90.3723C162.394 92.9548 162.451 95.6405 161.548 98.1197C161.435 98.4813 161.266 98.8428 161.097 99.256C160.364 99.0494 156.473 100.909 155.965 100.289C154.048 97.9131 157.319 91.8701 155.965 89.5975C152.976 98.7912 149.649 107.107 148.69 116.662C147.788 114.596 147.844 111.549 147.9 110.051C148.07 106.797 149.028 103.491 149.874 100.289C151.228 95.3306 153.258 90.269 154.217 85.259C154.893 81.7984 155.627 78.5961 156.698 75.2389C157.882 71.6751 157.6 68.3695 158.052 64.7024C158.898 57.8846 160.589 51.635 163.014 45.2305C164.65 47.0899 163.127 52.5647 162.789 54.734C162.338 57.7297 162.394 60.777 161.943 63.7727C161.548 66.5101 160.984 69.2992 160.251 72.0366C159.856 73.5345 158.334 77.3566 159.687 78.5961C162.056 76.995 163.917 72.8114 164.988 70.3839C166.003 68.1113 167.244 62.9463 169.669 61.7067C171.981 68.4728 164.594 75.2906 162.676 81.2303Z" fill="#6BA92A"/>
<path d="M168.035 22.506C168.035 22.8159 168.035 23.0741 168.035 23.3324C168.035 23.7456 167.641 24.0038 167.246 24.0555C165.046 29.0138 164.595 34.5403 164.088 39.9119C163.975 41.4097 163.806 42.9076 163.636 44.4054C163.298 47.1945 162.621 49.8803 161.945 52.4111C161.719 53.2892 161.493 54.1672 161.268 55.0453C160.873 56.7497 160.817 58.4541 160.817 60.2619C160.76 62.3795 160.76 64.5488 160.084 66.7181C159.971 67.0796 159.632 67.2862 159.238 67.2862C159.181 67.2862 159.068 67.2862 159.012 67.2346C158.561 67.1313 158.279 66.6664 158.448 66.2532C159.068 64.3422 159.068 62.3279 159.125 60.2619C159.181 58.4541 159.181 56.5431 159.632 54.7354C159.858 53.8573 160.084 52.9793 160.309 52.0496C160.986 49.4154 161.663 46.9363 161.945 44.2505C162.114 42.8043 162.227 41.3064 162.396 39.8086C162.96 33.7656 163.467 27.5676 166.4 21.9378C166.456 21.7829 166.569 21.6796 166.682 21.6279C167.189 21.8345 167.584 22.1444 168.035 22.506Z" fill="#6BA92A"/>
<path d="M36.7452 76.4803C36.6888 76.4803 36.576 76.4803 36.5196 76.4803C36.1249 76.4803 35.7865 76.2737 35.6737 75.9122C33.9254 70.2307 33.1359 64.291 32.29 58.5579C31.8388 55.2006 31.3312 51.7401 30.6545 48.3829C30.3725 46.9367 30.1469 45.4905 29.9213 44.096C29.4702 41.4102 29.019 38.6211 28.2295 35.9353C28.0603 35.2639 27.8347 34.6441 27.6655 33.9726C26.6504 30.4605 25.5789 26.845 25.2969 23.1262C25.6916 22.8163 26.0864 22.5581 26.4812 22.2998C26.7632 22.4031 26.9887 22.6614 26.9887 22.9712C27.2143 26.5351 28.2859 30.0989 29.301 33.5594C29.4702 34.2309 29.6957 34.8507 29.8649 35.5221C30.6545 38.3112 31.162 41.1519 31.5568 43.8894C31.7824 45.2839 32.008 46.7301 32.29 48.1246C32.9667 51.5335 33.4743 55.0457 33.9254 58.4029C34.715 64.0844 35.5609 69.9725 37.2528 75.5506C37.4784 75.9122 37.1964 76.3254 36.7452 76.4803Z" fill="#6BA92A"/>
<path d="M69.1726 5.56445L70.1313 5.66775C69.9057 7.78539 72.8947 11.6591 74.1918 13.3119C76.8424 16.6691 80.0006 19.2 83.7227 20.7495C92.0129 24.21 101.769 23.9001 110.454 19.8714C113.669 18.3736 116.489 16.2559 118.519 13.7251C118.801 13.3636 119.139 13.002 119.421 12.6405C121.282 10.4195 123.2 8.09529 124.441 5.56445L126.02 6.18425C124.723 8.92168 122.749 11.2976 120.831 13.6218C120.549 13.9833 120.211 14.3449 119.929 14.7064C117.673 17.4439 114.684 19.7165 111.244 21.3176C106.281 23.6418 101.036 24.7781 95.8478 24.7781C91.449 24.7781 87.0501 23.9517 83.046 22.2473C79.0983 20.5945 75.6581 17.9087 72.8383 14.3449C71.3156 12.2789 68.4395 8.61178 68.4395 5.926L69.1726 5.56445Z" fill="#E4E2E6"/>
<path d="M154.691 98.2653C155.235 99.7562 155.235 101.247 155.778 100.75C157.764 103.175 168.986 97.8493 170.854 97.3462C175.309 96.1582 179.482 95.745 184.219 95.3835C187.039 95.1252 187.378 94.6604 187.49 92.1296C187.603 90.0636 187.603 87.8943 187.716 85.88C187.829 82.781 187.829 79.682 187.772 76.583C181.794 86.8613 167.606 95.5795 154.691 98.2653Z" fill="url(#paint2_linear)"/>
<path d="M50.7299 134.431C48.9816 138.873 45.767 142.85 42.6089 146.569C42.2141 147.034 41.5373 148.067 40.6914 149.306C41.4809 144.813 42.2705 140.319 43.2856 135.774C44.4699 130.403 46.049 124.36 45.767 118.833C45.3159 111.551 43.4548 105.043 41.2554 98.3799C44.2443 98.948 48.1357 103.958 49.2636 105.559C52.0834 109.691 52.4217 113.978 52.7601 118.678C52.9857 123.792 52.6473 129.473 50.7299 134.431Z" fill="white"/>
<path d="M153.598 149.875C152.639 148.429 151.793 147.138 151.286 146.57C148.128 142.851 144.913 138.926 143.165 134.432C141.191 129.474 140.853 123.792 141.191 118.679C141.473 113.979 141.811 109.692 144.688 105.56C145.816 103.907 149.989 98.5357 152.978 98.3291C151.004 104.32 149.256 110.209 148.635 116.665C148.579 117.388 148.523 118.059 148.466 118.782C148.128 124.309 149.763 130.3 150.948 135.723C152.019 140.475 152.809 145.175 153.598 149.875Z" fill="white"/>
<path d="M119.817 11.6076C123.37 13.5186 126.866 15.5329 130.419 17.444C134.761 19.7682 139.837 21.3177 144.462 23.1771C148.635 24.8299 152.921 26.2761 157.263 27.464C159.181 27.9805 163.411 28.6003 164.482 29.4784C165.497 30.3048 167.02 28.9102 166.005 28.0838C164.877 27.1541 163.298 26.8959 161.831 26.5343C156.643 25.2431 151.68 23.7969 146.661 21.9375C141.585 20.0781 136.228 18.2187 131.434 15.7912C128.784 14.4483 126.302 12.8472 123.877 11.1427C122.918 10.4196 121.79 10.4713 120.832 9.95478C119.647 9.28334 118.576 10.9878 119.817 11.6076Z" fill="#66C554"/>
<path d="M72.7816 9.85114C68.7211 11.0907 65.6193 13.7765 61.9536 15.7909C57.2727 18.3217 51.7459 20.0261 46.7267 21.9372C42.215 23.6416 37.5906 25.1394 32.8533 26.2241C30.9923 26.6889 28.8492 26.8955 27.3829 28.0318C26.3678 28.8582 27.8341 30.2528 28.9056 29.4264C29.6952 28.8066 33.1917 28.1351 34.7708 27.7736C39.508 26.6373 44.1325 24.9845 48.7005 23.2284C52.9866 21.5756 57.1599 19.8195 61.446 18.2184C65.7321 16.5656 69.003 13.0534 73.4019 11.7105C74.6426 11.349 74.0787 9.43794 72.7816 9.85114Z" fill="#66C554"/>
<path d="M112.655 19.6121C118.802 16.5648 122.355 11.3482 125.57 5.82165C122.807 4.53041 120.1 2.98092 118.69 0.863281C118.633 0.863281 118.577 0.863281 118.52 0.863281C115.701 1.27648 112.486 3.29081 109.441 4.01391C105.719 4.8403 100.869 4.22051 97.0336 4.58206C93.1987 4.27216 88.4051 4.89195 84.6265 4.01391C81.5812 3.34246 78.3666 1.27648 75.4904 0.863281C75.4904 0.863281 75.434 0.863281 75.3776 0.863281C74.0805 2.77432 71.7119 4.22051 69.2305 5.4601C72.2758 23.021 97.7104 27.2563 112.655 19.6121Z" fill="#F7F7FB"/>
<path d="M79.3809 6.90625C80.4524 8.50739 81.6367 10.1085 83.1594 11.2965C86.3176 13.7757 91.7879 15.6867 95.9048 15.8933C100.924 16.0999 106.394 14.9119 110.06 11.6064C110.906 10.8316 111.752 10.0052 112.598 9.17883C101.996 13.5691 88.1786 12.7943 79.3809 6.90625Z" fill="#E4E2E6"/>
<path d="M34.6594 56.9052C34.6594 56.9052 71.8807 47.2467 96.8076 69.0945C96.8076 69.0945 115.193 47.7632 162.565 53.3414C151.173 53.9612 139.668 56.3887 129.179 60.469C120.381 63.8779 112.035 68.733 105.944 75.5507C99.7966 82.3685 94.0442 84.1762 87.8407 76.3255C84.9081 72.6583 81.2988 69.5594 77.1819 67.0285C64.6056 59.3844 48.702 57.7832 34.0391 58.3514L34.6594 56.9052Z" fill="white"/>
<defs>
<linearGradient id="paint0_linear" x1="27.527" y1="66.6591" x2="3.94505" y2="70.6639" gradientUnits="userSpaceOnUse">
<stop stop-color="#96C83C"/>
<stop offset="1" stop-color="#26C273"/>
</linearGradient>
<linearGradient id="paint1_linear" x1="141.567" y1="-48.0316" x2="18.7117" y2="-34.6148" gradientUnits="userSpaceOnUse">
<stop stop-color="#96C83C"/>
<stop offset="1" stop-color="#26C273"/>
</linearGradient>
<linearGradient id="paint2_linear" x1="179.752" y1="70.1358" x2="158.165" y2="73.646" gradientUnits="userSpaceOnUse">
<stop stop-color="#96C83C"/>
<stop offset="1" stop-color="#26C273"/>
</linearGradient>
</defs>
</svg>
