<svg width="1129" height="979" viewBox="0 0 1129 979" fill="none" xmlns="http://www.w3.org/2000/svg">
<path d="M1128.49 530.231V479.053L808.974 483.005L1127.51 431.826L1118.42 381.438L732.503 458.502L1099.84 317.614L1080.67 270.19L708.001 429.455L1047.08 206.167L1018.23 163.881L716.695 379.265L985.036 121.002L948.678 84.8408L675.792 368.199L897.104 42.9496L854.422 14.8904L639.236 358.319L790.202 -18.504L742.383 -36.6832L624.021 294.494L696.738 -50.3176L646.35 -60L585.884 292.914L590.626 -60H539.448L544.388 293.111L488.27 -56.4432L437.882 -47.3536L514.946 338.559L374.057 -28.9768L326.633 -9.612L483.132 356.541L263.796 23.3872L221.707 52.4344L426.618 339.35L181.397 84.8408L145.236 121.002L428.792 393.887L103.345 172.575L75.4832 215.454L412.984 426.886L42.6816 278.489L24.7 326.308L348.566 442.102L11.6584 371.163L2.1736 421.354L368.919 484.388L0.395202 479.053V530.231L357.854 525.291L0 582.595L9.0896 632.983L395.002 556.117L27.4664 696.808L46.8312 744.232L414.96 586.942L81.2136 806.674L110.063 848.96L404.487 638.714L145.236 888.282L181.397 924.443L454.48 640.887L233.168 966.334L275.85 994.394L488.467 654.917L339.872 1026.01L387.691 1043.99L504.868 716.173L433.139 1056.04L483.527 1065.73L544.586 709.652L539.448 1064.34H590.626L586.674 745.813L637.062 1060.98L687.45 1051.9L612.56 676.85L749.299 1034.11L796.723 1014.94L640.817 650.174L858.374 981.155L900.661 952.107L686.66 652.546L941.366 917.527L977.527 881.169L702.073 615.99L1018.04 831.374L1046.09 788.494L709.977 577.853L1077.71 725.46L1095.69 677.641L771.43 561.65L1108.14 632.983L1117.63 582.595L785.46 525.686L1128.49 530.231Z" fill="url(#paint0_radial)"/>
<defs>
<radialGradient id="paint0_radial" cx="0" cy="0" r="1" gradientUnits="userSpaceOnUse" gradientTransform="translate(564.288 502.858) scale(563.571)">
<stop offset="0.0226675" stop-color="#FFEBCA"/>
<stop offset="0.4333" stop-color="#95C83C"/>
<stop offset="0.6513" stop-color="#65C554"/>
<stop offset="1" stop-color="#36C36B" stop-opacity="0"/>
</radialGradient>
</defs>
</svg>
